<svg xmlns="http://www.w3.org/2000/svg" xmlns:xlink="http://www.w3.org/1999/xlink" width="42" zoomAndPan="magnify" viewBox="0 0 31.5 31.499999" height="42" preserveAspectRatio="xMidYMid meet" version="1.0"><defs><clipPath id="ae690c9d28"><path d="M 0 0 L 31.007812 0 L 31.007812 31.007812 L 0 31.007812 Z M 0 0 " clip-rule="nonzero"/></clipPath><clipPath id="8965c0caf2"><path d="M 6.203125 12 L 24.660156 12 L 24.660156 17 L 6.203125 17 Z M 6.203125 12 " clip-rule="nonzero"/></clipPath><clipPath id="ca9fe814dd"><path d="M 7 17 L 23 17 L 23 23.402344 L 7 23.402344 Z M 7 17 " clip-rule="nonzero"/></clipPath></defs><g clip-path="url(#ae690c9d28)"><path fill="#ffffff" d="M 0 0 L 31.007812 0 L 31.007812 31.007812 L 0 31.007812 Z M 0 0 " fill-opacity="1" fill-rule="nonzero"/><path fill="#ffffff" d="M 0 0 L 31.007812 0 L 31.007812 31.007812 L 0 31.007812 Z M 0 0 " fill-opacity="1" fill-rule="nonzero"/><rect x="-3.15" width="37.8" fill="#ffde59" y="-3.15" height="37.799999" fill-opacity="1"/></g><path fill="#000000" d="M 15.425781 13.226562 C 13.292969 13.203125 11.601562 13.019531 9.398438 12.566406 C 9.378906 12.636719 9.359375 12.714844 9.339844 12.78125 C 9.230469 13.226562 9.132812 13.617188 9.0625 13.9375 C 9.007812 14.195312 9.203125 14.382812 9.453125 14.4375 C 11.785156 14.917969 13.4375 15.070312 15.429688 15.09375 C 17.417969 15.113281 19.300781 14.992188 21.398438 14.554688 C 21.664062 14.5 21.867188 14.289062 21.792969 14.023438 C 21.65625 13.550781 21.542969 13.148438 21.441406 12.765625 C 21.4375 12.738281 21.429688 12.714844 21.421875 12.691406 C 19.628906 13.058594 17.886719 13.226562 15.820312 13.226562 C 15.6875 13.226562 15.558594 13.226562 15.425781 13.226562 Z M 15.425781 13.226562 " fill-opacity="1" fill-rule="nonzero"/><path fill="#000000" d="M 21.253906 12.007812 C 21.199219 11.765625 21.140625 11.519531 21.085938 11.257812 C 20.765625 9.785156 20.742188 8.84375 19.992188 8.34375 C 19.605469 8.078125 19.203125 7.941406 18.828125 8.035156 C 17.257812 8.421875 17.003906 8.949219 15.519531 9 C 14.066406 9.050781 12.921875 8.378906 12.921875 8.378906 C 12.332031 8.15625 11.84375 7.898438 11.332031 8.101562 C 10.976562 8.242188 10.609375 8.5 10.417969 9.097656 C 10.113281 10.050781 9.828125 11.023438 9.585938 11.886719 C 11.714844 12.324219 13.363281 12.503906 15.433594 12.523438 C 17.609375 12.546875 19.410156 12.386719 21.253906 12.007812 Z M 21.253906 12.007812 " fill-opacity="1" fill-rule="nonzero"/><g clip-path="url(#8965c0caf2)"><path fill="#000000" d="M 24.640625 14.554688 C 24.640625 15.863281 20.515625 16.921875 15.429688 16.921875 C 10.34375 16.921875 6.21875 15.863281 6.21875 14.554688 C 6.21875 13.949219 7.117188 13.394531 8.589844 12.972656 C 8.515625 13.273438 8.449219 13.542969 8.394531 13.785156 C 8.332031 14.066406 8.378906 14.359375 8.535156 14.597656 C 8.703125 14.863281 8.988281 15.058594 9.320312 15.125 C 11.550781 15.582031 13.261719 15.773438 15.421875 15.792969 C 15.554688 15.792969 15.6875 15.796875 15.820312 15.796875 C 17.921875 15.796875 19.703125 15.625 21.53125 15.242188 C 21.878906 15.167969 22.171875 14.964844 22.339844 14.683594 C 22.496094 14.421875 22.527344 14.117188 22.445312 13.820312 C 22.351562 13.507812 22.273438 13.226562 22.203125 12.957031 C 23.714844 13.375 24.640625 13.9375 24.640625 14.554688 Z M 24.640625 14.554688 " fill-opacity="1" fill-rule="nonzero"/></g><g clip-path="url(#ca9fe814dd)"><path fill="#000000" d="M 22.679688 18.328125 C 22.679688 18.324219 22.679688 18.320312 22.675781 18.316406 C 22.523438 18.03125 22.226562 17.878906 21.925781 17.933594 C 21.421875 18.023438 20.894531 18.101562 20.347656 18.167969 C 18.539062 18.378906 16.839844 18.402344 15.429688 18.410156 C 14.019531 18.402344 12.320312 18.378906 10.507812 18.167969 C 9.960938 18.101562 9.4375 18.023438 8.929688 17.933594 C 8.632812 17.878906 8.335938 18.03125 8.179688 18.316406 C 8.179688 18.320312 8.175781 18.324219 8.175781 18.328125 C 8.007812 18.640625 7.949219 19.007812 8.019531 19.363281 C 8.136719 19.980469 8.402344 20.816406 9.015625 21.5625 C 9.097656 21.664062 9.390625 22.007812 9.886719 22.367188 C 11.144531 23.265625 12.558594 23.398438 13.457031 23.382812 C 13.628906 23.378906 13.796875 23.332031 13.945312 23.242188 C 14.171875 23.105469 14.332031 22.960938 14.441406 22.84375 C 14.625 22.648438 14.738281 22.464844 14.992188 22.339844 C 15.164062 22.257812 15.324219 22.242188 15.429688 22.242188 C 15.535156 22.242188 15.695312 22.257812 15.867188 22.339844 C 16.121094 22.464844 16.234375 22.648438 16.417969 22.84375 C 16.527344 22.960938 16.6875 23.105469 16.910156 23.242188 C 17.0625 23.332031 17.230469 23.378906 17.402344 23.382812 C 18.300781 23.398438 19.714844 23.265625 20.96875 22.367188 C 21.46875 22.007812 21.761719 21.664062 21.84375 21.5625 C 22.453125 20.816406 22.722656 19.980469 22.839844 19.363281 C 22.910156 19.007812 22.847656 18.640625 22.679688 18.328125 Z M 13.667969 21.140625 C 13.019531 21.863281 11.710938 21.734375 10.984375 20.992188 C 10.828125 20.832031 10.417969 20.410156 10.527344 20.085938 C 10.777344 19.332031 13.75 19.46875 13.988281 20.355469 C 14.078125 20.683594 13.761719 21.035156 13.667969 21.140625 Z M 20.074219 20.992188 C 19.347656 21.734375 18.039062 21.863281 17.390625 21.144531 C 17.296875 21.035156 16.980469 20.683594 17.070312 20.355469 C 17.308594 19.46875 20.28125 19.332031 20.53125 20.085938 C 20.640625 20.410156 20.230469 20.832031 20.074219 20.992188 Z M 20.074219 20.992188 " fill-opacity="1" fill-rule="nonzero"/></g></svg>