<svg xmlns="http://www.w3.org/2000/svg" viewBox="0 0 500 500"><g id="freepik--Character--inject-3"><g id="freepik--character--inject-3"><g id="freepik--Arm--inject-3"><path d="M407.77,87.64c-5.85-.23-10.7,1.66-15.28,7.22-4.91,6-11,13-18.28,21.07l-15.64-9.25-7.66,10.43s15.8,13.74,21.92,16.6c4.58,2.14,6.61.27,10.54-3,4.37-3.65,17.46-16.23,17.46-16.23Z" style="fill:#ffbda7"></path><path d="M374.21,115.93c3.46,1.81,5.87,4,6.42,6.85.15-4.49-4.24-7.15-5.47-7.92Z" style="fill:#f0997a"></path><g id="freepik--Tablet--inject-3"><path d="M340.68,86h0l1.3-.87h0a1.36,1.36,0,0,1,1.23,0l12.75,5.22a4.7,4.7,0,0,1,2.54,3l6,27.63a1.24,1.24,0,0,1-.34,1.34h0l-1.34.9h0a1.37,1.37,0,0,1-1.24,0L348.78,118a4.7,4.7,0,0,1-2.54-3l-6-27.64C340.14,86.68,340.31,86.2,340.68,86Z" style="fill:#455a64"></path><path d="M355.94,92.15a4.62,4.62,0,0,1,1.24,2.13l6,27.62a1.28,1.28,0,0,1-.3,1.32l1.27-.84v0a1.22,1.22,0,0,0,.34-1.33l-6-27.64a4.46,4.46,0,0,0-1.14-2Z" style="fill:#37474f"></path><path d="M363.13,121.91l-5.95-27.64a4.75,4.75,0,0,0-2.54-3L341.88,86c-1.14-.47-1.86.14-1.6,1.34,1.17,5.44,4.79,22.21,6,27.64a4.7,4.7,0,0,0,2.54,3l12.75,5.22C362.67,123.72,363.39,123.12,363.13,121.91Z" style="fill:#263238"></path><path d="M356.48,99.83l-1.11-5.17a.88.88,0,0,0-.48-.57l-2.31-.94c-.21-.09-.35,0-.3.25l1.12,5.17a.9.9,0,0,0,.47.57l2.31.94C356.4,100.17,356.53,100.06,356.48,99.83Z" style="fill:#455a64"></path><path d="M355.11,95.83a2.23,2.23,0,0,0-1.22-1.4c-.55-.23-.91,0-.79.58a2.27,2.27,0,0,0,1.22,1.41C354.87,96.64,355.23,96.38,355.11,95.83Z" style="fill:#263238"></path><path d="M355.64,98.44A2.27,2.27,0,0,0,354.42,97c-.55-.22-.91,0-.79.59a2.23,2.23,0,0,0,1.22,1.4C355.4,99.25,355.76,99,355.64,98.44Z" style="fill:#263238"></path><path d="M340.84,102.31c-1.2-1.87-1.06-2.1-.32-3a5.71,5.71,0,0,1,4.75-2.12c1.58.13,3.19.18,4,.65s0,2.14-2.08,2.5c-3.29.56-3.32,1.45-3.32,1.45a39.85,39.85,0,0,1,4.24-.52,29.59,29.59,0,0,1,4.74,1c1.36.29,1.54,2.08-.82,2.56l2.5.54c1.75.37,2.3,1.34.86,2.36a2.65,2.65,0,0,1-1.63.52s1.88.09,1.88.72c0,1.79-1.17,2.2-5,3.1-3.67.86-4.51,2.77-3.87,4.15,0,0-1.41-.92-2.66-1.89-.91-.7-1.68-1.48-1.17-2.94,0,0-2.07-.07-2.13-1.36a6.61,6.61,0,0,1,.64-2.71,2.26,2.26,0,0,1-1-2.18,3.68,3.68,0,0,1,.87-2.2Z" style="fill:#ffbda7"></path><path d="M352,104.82a11.1,11.1,0,0,0-2.27-.37,7.37,7.37,0,0,0-2.25.58,26.84,26.84,0,0,0-4.1,1.93,26.39,26.39,0,0,0,4.33-1.3,11.08,11.08,0,0,1,2.06-.69C350.47,104.89,351.26,104.92,352,104.82Z" style="fill:#f0997a"></path><path d="M353.74,108.23a5,5,0,0,0-2.47-.21,13.52,13.52,0,0,0-2.39.62,22.93,22.93,0,0,0-4.43,2.08,48.24,48.24,0,0,0,4.65-1.45A12.79,12.79,0,0,1,353.74,108.23Z" style="fill:#f0997a"></path></g></g><g id="freepik--Bottom--inject-3"><path d="M452.43,290.31c-.4-12.09.15-19.52-.8-37.25h0c-.08-4.54-.25-9.41-.55-13.73-1-14.55-3.27-19.52-3.48-22.33,0,0-.38-22.63-1.33-54.46-.45-15-4.79-19.51-8.26-27.46H395.9c-4.61,19.61-5,62.38-4.87,82.59.07,10.31,4.23,62.73,4.31,64,.29,4.49-.1,6.27-1.86,8.16-3.69,4-9.05,7.73-13.67,11.19.67,1.77,6.23,1.7,9,.36a71.57,71.57,0,0,0,10.27-6.55c3.8-2.82,9.72-5.25,9.78-9.53a4.4,4.4,0,0,1,.13-.76c.07-2.5,4.84-36.5,5.32-45.06.42-7.35-.48-19.84-.48-19.84l4.75-31.17s2.93,18.43,5.89,31c2.41,10.24,6.38,27.71,9.09,40.31h0c2.61,14.52,6.44,24.85,7.1,32.12.2,1.73,2.16,18.76,3,22.66s9.32,4,9.86-2.71C453.84,307.39,452.5,292.46,452.43,290.31Z" style="fill:#ffbda7"></path><path d="M371.93,305.54a3.71,3.71,0,0,0,.65,3.71c1.46,1.28,5.77,3.42,11.5,2.74s8.85-2.41,11.16-4.31,5.54-4.56,8.14-5.1c2.41-.5,6.09-1.74,6.87-2.47s.71-4,.71-4Z" style="fill:#263238"></path><path d="M409.1,283.33s.43,0,.57.78.33,3.56.69,5.06a26.89,26.89,0,0,1,.48,8c-.34,1.69-5.33,3-7.85,3.93a31.85,31.85,0,0,0-8.16,5,23.6,23.6,0,0,1-12.13,4.37c-5.69,0-9.36-1.56-10.48-3.62-1.38-2.54-.26-4,6.32-7,1.24-.56,5.62-3.09,7.11-4a34.27,34.27,0,0,0,4.49-3.26,26.7,26.7,0,0,0,2-2,9.08,9.08,0,0,0,1.68-2.09c.07-.18.13-.38.19-.56a9,9,0,0,0,.45-1.53c.11-.54.18-1.33.7-1.65a4.35,4.35,0,0,1,2.35-.25A17.68,17.68,0,0,1,400,285c1,.23,2.08.33,2.64,1.24a4.7,4.7,0,0,1,.51,2.37c0,.38,0,.77,0,1.15,0,.16-.07.46.16.39s.47-.63.55-.82c.19-.43.31-.88.51-1.3a6.66,6.66,0,0,1,.83-1.38,4.88,4.88,0,0,1,2-1.39c.73-.32,1.78-.74,1.78-.74S409.06,283.65,409.1,283.33Z" style="fill:#37474f"></path><path d="M377.48,300.44c8.23.65,10.77,5.77,11.09,8.92a19.31,19.31,0,0,1-5.87,1.17c-5.69,0-9.59-1.56-10.71-3.62C370.69,304.51,371.61,302.59,377.48,300.44Z" style="fill:#fafafa"></path><path d="M389.83,300.65a.42.42,0,0,0,.26-.08.41.41,0,0,0,.06-.57,9.69,9.69,0,0,0-7.42-3,.4.4,0,1,0,.08.8,9,9,0,0,1,6.71,2.72A.39.39,0,0,0,389.83,300.65Z" style="fill:#f0f0f0"></path><path d="M393.4,298.62a.42.42,0,0,0,.26-.08.41.41,0,0,0,.06-.57,9.65,9.65,0,0,0-7.42-3,.4.4,0,0,0-.36.44.4.4,0,0,0,.44.36,9,9,0,0,1,6.71,2.72A.4.4,0,0,0,393.4,298.62Z" style="fill:#f0f0f0"></path><path d="M396.72,296.3a.38.38,0,0,0,.25-.09.41.41,0,0,0,.07-.57,9.74,9.74,0,0,0-7.43-3,.41.41,0,0,0-.36.44.41.41,0,0,0,.44.37,9,9,0,0,1,6.72,2.72A.4.4,0,0,0,396.72,296.3Z" style="fill:#f0f0f0"></path><path d="M400,294a.38.38,0,0,0,.25-.09.4.4,0,0,0,.08-.56c-1.56-2-5.11-3.36-8.11-3.07a.4.4,0,0,0-.36.44.41.41,0,0,0,.44.37c2.7-.27,6,1,7.39,2.75A.41.41,0,0,0,400,294Z" style="fill:#f0f0f0"></path><path d="M441,317.6c.23,3.89.83,6.46,2.21,8.74s4,3,6.62,2.33,6-2.45,6.77-5.8,1.19-5.66.59-9.26Z" style="fill:#263238"></path><path d="M452.4,289.45c1.09.08,1,5.3,1.66,10.53.68,5.6,2.35,7.92,2.95,12.51.68,5.25-.19,7.59-2,10.77s-8.35,6.28-11.56,1.74c-2.61-3.71-2.72-7.82-2.48-13.05a118.45,118.45,0,0,0-.35-13.28c-.22-3.93-1.09-7.89-.14-8.33.07.58.14,1.31.22,1.88a9.32,9.32,0,0,0,.35,2.09c.11.29.35.6.45.12a3.16,3.16,0,0,0,0-1c-.16-1.45.57-1.57,1-1.68a47.69,47.69,0,0,1,5-.71c.83-.06,3.69-.19,4.06.29a3.14,3.14,0,0,1,.37,1.51c.09.79.28,1.37.3,1.12C452.26,293.43,452.42,289.78,452.4,289.45Z" style="fill:#37474f"></path><path d="M457.31,315.53a13.09,13.09,0,0,1-2,8c-1.84,3.17-8.87,6.29-12.08,1.75-1.6-2.26-2-4.94-2.24-7.66C442.88,314.09,454.28,312.55,457.31,315.53Z" style="fill:#fafafa"></path><path d="M443.32,311.89a.37.37,0,0,0,.14,0,18.52,18.52,0,0,1,10-1,.41.41,0,0,0,.18-.79,19,19,0,0,0-10.49,1,.39.39,0,0,0-.19.53A.4.4,0,0,0,443.32,311.89Z" style="fill:#f0f0f0"></path><path d="M453.17,307a.41.41,0,0,0,.09-.79c-4.87-1.64-10.27.83-10.47.94a.4.4,0,1,0,.37.71s5.31-2.42,9.84-.88A.52.52,0,0,0,453.17,307Z" style="fill:#f0f0f0"></path><path d="M453,303.29a.41.41,0,0,0,.34-.27.4.4,0,0,0-.24-.51c-5.36-1.92-10.48.79-10.67.9a.39.39,0,0,0-.14.55.4.4,0,0,0,.55.14c.05,0,5-2.62,10-.83A.55.55,0,0,0,453,303.29Z" style="fill:#f0f0f0"></path><path d="M452.74,299.66a.4.4,0,0,0,.33-.26.41.41,0,0,0-.23-.52c-5-1.88-10.54.89-10.75,1a.4.4,0,1,0,.4.69c.05,0,5.4-2.7,10.06-1A.42.42,0,0,0,452.74,299.66Z" style="fill:#ebebeb"></path><path d="M442.23,135.08c2.22,10.44,5.39,16.31,5.89,42.79s.41,33.88.51,37.07,2,8.9,3.6,24.63.23,34.46.23,34.46-1.66,2.53-7.67,3.06c-5.55.5-8.29-1.58-8.29-1.58s-7.61-30.62-9.71-40.09-8.22-40.61-8.22-40.61l-3.63,25.25s1.7,8.68,0,22.47-3.61,27.74-3.61,27.74-3.1,1.94-9.58,1.57a17.29,17.29,0,0,1-7.47-2s-4.71-41-4.71-56.65,1.55-54.46,3.87-78.15Z" style="fill:#455a64"></path><path d="M397.36,157.93c2.36,6.46,10.93,11,14.7,11.88l4.43,24.66-1.55,25.59,3.63-25.25-4.95-30.06S403.17,164,397.36,157.93Zm35.75-3.15c.62,2.54,1.18,5.09,1.77,7.64s1.17,5.11,1.8,7.68a51,51,0,0,0-.52-7.91c-.34-2.62-.83-5.21-1.43-7.79a69.08,69.08,0,0,0-2.26-7.6,37.11,37.11,0,0,0-3.39-7.18c.79,2.53,1.49,5,2.15,7.57S432.52,152.24,433.11,154.78Zm4.44-4.88c.85,1.53,1.66,3.08,2.48,4.63l2.4,4.73a21.08,21.08,0,0,0-1.21-5.25A33.8,33.8,0,0,0,439,149.1a38.85,38.85,0,0,0-2.9-4.51,27.81,27.81,0,0,0-3.58-4c.78,1.62,1.64,3.17,2.49,4.71S436.73,148.36,437.55,149.9Zm-3.93,71.37c-1.5-8.1-2.58-16.28-3.64-24.47s-2.05-16.4-3.19-24.6c.5,8.26,1.09,16.51,1.91,24.74s1.8,16.47,3.29,24.63,3.19,16.23,4.89,24.33,3.46,16.16,5.35,24.22q-1.87-12.27-4.07-24.47C436.72,237.51,435.17,229.36,433.62,221.27ZM396,193.76l1.35-21.56c-1.11,7.12-2,14.28-2.64,21.46s-1.26,14.35-1.28,21.63c.24,7.25.79,14.41,1.38,21.6s1.31,14.35,2.15,21.51q-.3-10.81-.85-21.6L395.57,226c-.18-3.59-.4-7.19-.47-10.75s.15-7.15.32-10.74S395.81,197.35,396,193.76Z" style="fill:#37474f"></path></g><g id="freepik--Top--inject-3"><path d="M446.34,97.53h0a15.09,15.09,0,0,1-15.09-15.09V44.77h2.51a12.59,12.59,0,0,1,12.58,12.59Z" style="fill:#37474f"></path><path d="M438.9,49.51a9.13,9.13,0,0,1,.41,1.92,5.31,5.31,0,0,1,0,1.26,4.25,4.25,0,0,1-4.14,3.43,6.45,6.45,0,0,1-5-2.67c-1.62-2.06-4-6.92-.89-8.65a6.39,6.39,0,0,1,6.66.55A8.13,8.13,0,0,1,438.9,49.51Z" style="fill:#407BFF"></path><path d="M438.9,49.51a9.13,9.13,0,0,1,.41,1.92,5.31,5.31,0,0,1,0,1.26,4.25,4.25,0,0,1-4.14,3.43,6.45,6.45,0,0,1-5-2.67c-1.62-2.06-4-6.92-.89-8.65a6.39,6.39,0,0,1,6.66.55A8.13,8.13,0,0,1,438.9,49.51Z" style="opacity:0.25"></path><path d="M446.63,152.62c-1.63-8.23-3.8-18.87-3.92-22.83-.27-8.28,1.72-14.55,2.41-19.2,1.51-10.12.4-19.07-2-21.06,0,0-6.86-1.58-9.1-2-1.79-.32-3.16-.53-5.5-1.1a33.52,33.52,0,0,0-12.1-.77c-1.09.11-3.81.84-6.93,1.3l-5.24.81s-2.23,1.37-5.59,7.38c-2.57,4.59-3.91,5.46-5,15.8-1.45,14.34-1.41,33.33-1.95,41C402.15,158.29,433.25,160.41,446.63,152.62Z" style="fill:#37474f"></path><g id="freepik--Head--inject-3"><path d="M402.86,66.06l-1.23-.38c-5.54-3-5.27-10.2-3.92-14,3-8.41,12.1-11.56,17.72-11.87,10.67-.58,15.88,2.17,17,7.7,1.44-.12,3.43,1,4.63,2.67,2.62,3.57,5.74,16-8.09,29.14Z" style="fill:#37474f"></path><path d="M430.87,75.55a5.64,5.64,0,0,0,5.19-2.43c2.17-3.17,2-6.18.74-8.06a4,4,0,0,0-5.24-1.14c-1.79,1.22-1.71,2.17-1.82,3.63s-3.32,1.31-4.16-3.88c-.79-4.85-.57-9.07-3-11.18-3.69-3.14-8.3-2.06-9.64-.06A4.83,4.83,0,0,0,406.26,51c-2.33,1.37-4.15,4.23-4.57,13.51-.34,7.52,1.23,13.9,3.9,16.18,1.55,1.32,3.83,2.17,7.37,2.19l-.13,4.16s-4.79,9-4.46,17.12c0,0,1.95-1.35,10.74-9C425,90.05,428.66,87,428.66,87l-.32-13.53A3.47,3.47,0,0,0,430.87,75.55Z" style="fill:#ffbda7"></path><path d="M404.19,59.6l3.52-1.19a1.78,1.78,0,0,0-2.3-1.2A2,2,0,0,0,404.19,59.6Z" style="fill:#263238"></path><path d="M415.67,58.6l3.57,1.77a1.91,1.91,0,0,0-.83-2.65A2.09,2.09,0,0,0,415.67,58.6Z" style="fill:#263238"></path><path d="M418.13,63.39a1.52,1.52,0,1,1-1.52-1.52A1.52,1.52,0,0,1,418.13,63.39Z" style="fill:#263238"></path><path d="M407.53,62.93A1.52,1.52,0,1,1,406,61.41,1.52,1.52,0,0,1,407.53,62.93Z" style="fill:#263238"></path><path d="M421.69,53.12c.83,1.06,1.44,2.8,1.32,6.6a12.4,12.4,0,0,0,1.12,5.93c.93,1.92,1.89,3.07,3.94,3.42a7.48,7.48,0,0,0,3.7-.37c.73-.34,2.77-1.78,2.53-3.89a4.49,4.49,0,0,1-1.5,1.06,4.28,4.28,0,0,1-1.36.32A4.12,4.12,0,0,1,428,64.26c-1.38-2.05-1.29-4.8-1.71-7.14-.54-3-1.05-5.49-3.74-7-3.18-1.75-8.91-1-9.6,2.27A6.3,6.3,0,0,1,421.69,53.12Z" style="fill:#37474f"></path><polygon points="412.12 61.47 411.72 70.78 406.57 69.21 412.12 61.47" style="fill:#f0997a"></polygon><path d="M416,73a2.38,2.38,0,0,0-1.21-.24,6,6,0,0,0-1.26.16,3.82,3.82,0,0,0-1.87,1,.69.69,0,0,0-.23.33c-.06.26.18.25.37.17s.24-.13.36-.19l.56-.22a6.05,6.05,0,0,1,1.09-.36,6.68,6.68,0,0,1,1.08-.15h.58c.2,0,.47,0,.58-.19A.23.23,0,0,0,416,73Z" style="fill:#b16668"></path><path d="M413,82.92a24.89,24.89,0,0,0,9.41-2.37c2.52-1.3,3.06-2.9,4.31-5.27,0,0-.63,5-3.13,6.65-3.79,2.47-10.65,3-10.65,3Z" style="fill:#f0997a"></path></g><g id="freepik--Hand--inject-3"><path d="M443.16,89.53c6.53,1.09,8.72,3.11,11.42,10.17,2.61,6.83,8.64,22.21,6.85,32.53-1.09,6.3-17-9.52-17-9.52l-7.6-17.54S437.66,89.53,443.16,89.53Z" style="fill:#ffbda7"></path><path d="M438.75,94.47a46,46,0,0,0-1.9,10.7l7.6,17.54s2.29,2.27,5.19,4.75l10.8-5.59c-.15-2.68-6.31-10.5-10.12-14.5C447.5,104.41,441.69,97.59,438.75,94.47Z" style="fill:#f0997a"></path><path d="M441.35,98.18a19.9,19.9,0,0,1-3.58-7c-.73-2.94-3-5.65-3.84-6.77s-2.5-2.76-3.8-4.32-1.69-2-3.56-2.32C424,77.38,422,77,421,77.28s-1,1-.1,1.86,2.72,1.11,3.29,1.29,1.83.71,1.83.71l2.38,3.51a35.22,35.22,0,0,0-4.83,1.18c-.8.43-1.47,2.48-1.13,3.61a2.18,2.18,0,0,0-.9,2.46s-.9,1.18-.28,2.15a16.14,16.14,0,0,0,2.4,2.67,6.68,6.68,0,0,0,2.44.53,17.8,17.8,0,0,0,3.05,3.54c1.38,1,2.29,1,3.81,3.11Z" style="fill:#ffbda7"></path><path d="M426.55,85c-1-.41-1.17-1.05-2.07-.71s-.56,1.37-.56,1.37Z" style="fill:#f0997a"></path><path d="M422.44,89.53a9.2,9.2,0,0,1,2-1.27c.66-.32,2-.81,2-.81a10.26,10.26,0,0,0-2.81.66,7.84,7.84,0,0,0-1.32.67,2.7,2.7,0,0,0,.09.66Z" style="fill:#b16668"></path><path d="M422.31,90.89a7.2,7.2,0,0,0-.93.47,2.8,2.8,0,0,0,.16.65,8.05,8.05,0,0,1,2.54-1.58A7.79,7.79,0,0,0,422.31,90.89Z" style="fill:#b16668"></path><path d="M426.43,97.78a19.11,19.11,0,0,0-2-3.18,1.45,1.45,0,0,0-2-.19c-.26.39,1.05.34,1.44.51A12.32,12.32,0,0,1,426.43,97.78Z" style="fill:#b16668"></path><path d="M429.47,84.55s-.74-1-2.06-2.71-1.24-1.41-2.53-1.67-3.72-.68-4.38-1.46a3.41,3.41,0,0,0,.37.43c.85.87,2.72,1.11,3.29,1.29s1.83.71,1.83.71l2.44,3.61Z" style="fill:#f0997a"></path><path d="M441.35,98.18c4.32,5.21,16,17.74,18.65,22.72,1.86,3.45,2.33,11.47.43,14.38s-7.33,1.69-11.73-2.17c-3.8-3.34-7-11.36-9.71-17.06s-6.06-12.15-6.06-12.15Z" style="fill:#ffbda7"></path><path d="M438.78,94a14.49,14.49,0,0,1-.84-2.31,12.89,12.89,0,0,0-.79-2.34,22.7,22.7,0,0,0-2.63-4.19,35,35,0,0,0-3.2-3.77c-.56-.61-1.08-1.23-1.61-1.87a4.29,4.29,0,0,0-2-1.5,21.4,21.4,0,0,0-2.43-.5c-.82-.14-1.63-.28-2.45-.37a8.71,8.71,0,0,0-1.25-.05,2.14,2.14,0,0,0-1.23.39.73.73,0,0,0-.27.65,1.44,1.44,0,0,0,.26.62,3,3,0,0,0,.92.88,7.54,7.54,0,0,0,2.36.82,11.77,11.77,0,0,1,2.26.82l2.27,3.32c-1.4.28-2.81.56-4.2,1a3,3,0,0,0-.53.22,1.56,1.56,0,0,0-.43.42,4.23,4.23,0,0,0-.51,1,4,4,0,0,0-.18,2.19,2.75,2.75,0,0,0-.88,1.09,1.93,1.93,0,0,0-.15.72,2,2,0,0,0,.13.68,2.14,2.14,0,0,0-.36,2,9.83,9.83,0,0,0,1.31,1.68l.74.75A2.62,2.62,0,0,0,424,97a8.6,8.6,0,0,0,2.07.33c.45.66.93,1.29,1.44,1.9a9.29,9.29,0,0,0,1.74,1.69c.65.47,1.41.78,2.06,1.25a7.63,7.63,0,0,1,1.65,1.75,7.42,7.42,0,0,0-1.63-1.77c-.65-.49-1.4-.81-2.05-1.29a9.32,9.32,0,0,1-1.69-1.69,22.53,22.53,0,0,1-1.43-1.94l0,0h0a8.29,8.29,0,0,1-2.05-.34,2.23,2.23,0,0,1-.81-.61c-.25-.24-.49-.49-.73-.75a9.48,9.48,0,0,1-1.27-1.64,2,2,0,0,1,.37-1.89l0,0,0,0a1.84,1.84,0,0,1-.12-.66,1.8,1.8,0,0,1,.14-.65,2.57,2.57,0,0,1,.86-1l0,0,0-.07a3.76,3.76,0,0,1,.19-2.14c.25-.67.6-1.39,1.35-1.53,1.41-.42,2.89-.69,4.35-1l.17,0-.1-.14-2.37-3.52,0,0h0a13.61,13.61,0,0,0-2.34-.85,7.66,7.66,0,0,1-2.29-.78,2.73,2.73,0,0,1-.85-.81c-.23-.31-.34-.73,0-1a3.37,3.37,0,0,1,2.3-.29c.82.08,1.63.22,2.44.35a21,21,0,0,1,2.41.48,4.12,4.12,0,0,1,1.9,1.44c.52.62,1.06,1.26,1.62,1.86a36.82,36.82,0,0,1,3.21,3.74A23.07,23.07,0,0,1,437,89.37a12.53,12.53,0,0,1,.82,2.32,14.07,14.07,0,0,0,.88,2.31,26.63,26.63,0,0,0,2.62,4.18A27.87,27.87,0,0,1,438.78,94Z" style="fill:#b16668"></path></g></g></g></g><g id="freepik--Tab--inject-3"><g id="freepik--tab--inject-3"><g id="freepik--window--inject-3"><path d="M218.24,273.42c1-4.77-18.43,6.46-19.44,11.22l6.26,16.87a2.67,2.67,0,0,0,1.05,1.23c1.38.84,6.45,3.7,6.89,4a2.71,2.71,0,0,0,4-1.49l8.12-27.83C225.62,275,218.24,273.42,218.24,273.42Z" style="fill:#407BFF"></path><path d="M218.24,273.42c1-4.77-18.43,6.46-19.44,11.22l6.26,16.87a2.67,2.67,0,0,0,1.05,1.23c1.38.84,6.45,3.7,6.89,4a2.71,2.71,0,0,0,4-1.49l8.12-27.83C225.62,275,218.24,273.42,218.24,273.42Z" style="opacity:0.25"></path><path d="M306.9,29.87,116.81,139.54a5.76,5.76,0,0,0-2.61,4.52V334.38a5.71,5.71,0,0,0,2.62,4.51l1.63.94a5.81,5.81,0,0,0,5.22,0L313.76,230a5.76,5.76,0,0,0,2.61-4.52V35.3a5.77,5.77,0,0,0-2.62-4.51l-1.63-.93A5.81,5.81,0,0,0,306.9,29.87Z" style="fill:#407BFF"></path><path d="M306.9,29.87,116.81,139.54a5.76,5.76,0,0,0-2.61,4.52V334.38a5.71,5.71,0,0,0,2.62,4.51l1.63.94a5.81,5.81,0,0,0,5.22,0L313.76,230a5.76,5.76,0,0,0,2.61-4.52V35.3a5.77,5.77,0,0,0-2.62-4.51l-1.63-.93A5.81,5.81,0,0,0,306.9,29.87Z" style="opacity:0.25"></path><path d="M316.37,35.31v1a2.41,2.41,0,0,0-3.62-2.08L124.65,142.9a6.94,6.94,0,0,0-2.62,2.62l0,.08-7-4.07a5.31,5.31,0,0,1,1.88-2L306.89,29.87a5.84,5.84,0,0,1,5.23,0l1.63.94A5.74,5.74,0,0,1,316.37,35.31Z" style="fill:#407BFF"></path><path d="M316.37,35.31v1a2.41,2.41,0,0,0-3.62-2.08L124.65,142.9a6.94,6.94,0,0,0-2.62,2.62l0,.08-7-4.07a5.31,5.31,0,0,1,1.88-2L306.89,29.87a5.84,5.84,0,0,1,5.23,0l1.63.94A5.74,5.74,0,0,1,316.37,35.31Z" style="fill:#fff;opacity:0.45"></path><path d="M314,34.86a1.45,1.45,0,0,0-.72.2L125.12,143.71a6.26,6.26,0,0,0-3.12,5.4v188c0,.49.1,1.64,1.06,1.64a2.4,2.4,0,0,0,1.14-.37l83.16-48,5.2,14.41a2.71,2.71,0,0,0,5.06-.25l7-24.16,87.63-50.6c2.17-1.25,3.13-2.51,3.13-4.09V36.33A1.48,1.48,0,0,0,314,34.86Z" style="fill:#fafafa"></path><path d="M123.06,339.71c-1.21,0-2-1-2-2.57v-188a7.19,7.19,0,0,1,3.59-6.21L312.76,34.26a2.36,2.36,0,0,1,1.2-.33,2.41,2.41,0,0,1,2.4,2.4V225.71c0,2.53-2.06,4-3.61,4.9L225.45,281l-6.93,23.8a3.64,3.64,0,0,1-6.82.36l-4.84-13.42-82.2,47.46A3.28,3.28,0,0,1,123.06,339.71ZM314,35.8a.54.54,0,0,0-.27.07L125.59,144.52a5.31,5.31,0,0,0-2.66,4.59v188a1.31,1.31,0,0,0,.15.73,2.69,2.69,0,0,0,.65-.27L207.86,289l5.57,15.47a1.78,1.78,0,0,0,3.3-.23l7.14-24.49.32-.18L311.82,229c2.36-1.35,2.67-2.42,2.67-3.28V36.33A.54.54,0,0,0,314,35.8Z" style="fill:#407BFF"></path></g><g id="freepik--Key--inject-3"><path d="M163.48,225.79l2.29-6.1v-3.3l-4.08-4.21v-6.12l4-5.09V189.3c5.74-7,9.76-18.16,9.73-28.38,0-8-2.53-13.66-6.38-15.89l-3.95-2.27c-2.67-1.55-6-1.46-9.57.63-8.77,5.12-15.85,20.25-15.81,33.78,0,8,2.59,13.61,6.47,15.85l4,2.3a10.09,10.09,0,0,0,1.15.55v58.9l4,2.29,4.39-2.54,6.13-13.13v-7.47l-2.34-1.74Z" style="fill:#407BFF"></path><path d="M159.5,145.68c-8.77,5.12-15.85,20.24-15.81,33.78,0,11.12,5,17.69,11.61,16.85v60.75l4.39-2.54,6.13-13.13v-7.47l-2.34-1.74v-6.39l2.29-6.1v-3.3l-4.08-4.21v-6.12l4-5.09V189.3c5.74-7,9.76-18.16,9.73-28.38C175.41,147.39,168.27,140.56,159.5,145.68Z" style="fill:#407BFF"></path><path d="M159.5,145.68c-8.77,5.12-15.85,20.24-15.81,33.78,0,11.12,5,17.69,11.61,16.85v60.75l4.39-2.54,6.13-13.13v-7.47l-2.34-1.74v-6.39l2.29-6.1v-3.3l-4.08-4.21v-6.12l4-5.09V189.3c5.74-7,9.76-18.16,9.73-28.38C175.41,147.39,168.27,140.56,159.5,145.68Z" style="fill:#fff;opacity:0.30000000000000004"></path><polygon points="156.69 256.25 157.78 255.63 157.78 194.96 156.69 195.57 156.69 256.25" style="fill:#407BFF"></polygon><path d="M154.53,193.06a6.69,6.69,0,0,1-2.79-.59c-3.37-1.53-5.51-5.85-5.87-11.86-.66-11.09,4.87-24.83,12.34-30.63,3.3-2.57,6.63-3.3,9.38-2.06,3.37,1.53,5.52,5.85,5.87,11.87.66,11.08-4.87,24.82-12.33,30.62A11,11,0,0,1,154.53,193.06Zm10.28-44.82a10.14,10.14,0,0,0-6.05,2.45c-7.25,5.65-12.63,19-12,29.86.34,5.67,2.29,9.71,5.35,11.1,2.42,1.1,5.43.41,8.45-2,7.26-5.64,12.64-19,12-29.86-.34-5.67-2.28-9.71-5.34-11.09A5.7,5.7,0,0,0,164.81,148.24Z" style="fill:#407BFF"></path></g><path d="M160.58,178.15a1.3,1.3,0,0,0-.71-.22,1.75,1.75,0,0,0-.87.27,3.86,3.86,0,0,0-.89.75,5.31,5.31,0,0,0-.71,1,6.05,6.05,0,0,0-.46,1.21,4.76,4.76,0,0,0-.17,1.26,2.83,2.83,0,0,0,.17,1.07,1.48,1.48,0,0,0,.46.67,1.07,1.07,0,0,0,.71.21,2,2,0,0,0,.89-.28,3.5,3.5,0,0,0,.87-.74,5.3,5.3,0,0,0,.71-1,6.19,6.19,0,0,0,.48-1.22,4.69,4.69,0,0,0,.18-1.27,2.83,2.83,0,0,0-.18-1.06A1.51,1.51,0,0,0,160.58,178.15Zm4.36-20.39a2.8,2.8,0,0,0-1.16-1.44A2.76,2.76,0,0,0,162,156a6.56,6.56,0,0,0-2.34.88,12.11,12.11,0,0,0-1.76,1.24,14.07,14.07,0,0,0-1.5,1.49,19,19,0,0,0-1.29,1.67c-.4.58-.77,1.17-1.1,1.76l1,1.47c.15.3.41.35.76.15a1.91,1.91,0,0,0,.51-.54c.18-.27.41-.59.68-.95a10.62,10.62,0,0,1,1-1.12,7.11,7.11,0,0,1,1.43-1.07,3.08,3.08,0,0,1,1.07-.4,1.23,1.23,0,0,1,1.4.78,2.86,2.86,0,0,1,.2,1.15,6.34,6.34,0,0,1-.35,2.1,12.77,12.77,0,0,1-.86,1.93c-.35.63-.72,1.24-1.11,1.82s-.75,1.17-1.07,1.74a10.08,10.08,0,0,0-.77,1.73,4.1,4.1,0,0,0-.2,1.73l.25,3.07,2.5-1.44.34-3.07a4,4,0,0,1,.45-1.39c.25-.48.55-1,.89-1.54l1.1-1.75a15.9,15.9,0,0,0,1.07-2,14.65,14.65,0,0,0,.81-2.37,11.1,11.1,0,0,0,.33-2.78A6.59,6.59,0,0,0,164.94,157.76Z" style="fill:#fafafa"></path><path d="M202.49,118.67a4.17,4.17,0,0,1,1.26-.51,1.67,1.67,0,0,1,1.05.07,1.47,1.47,0,0,1,.72.75,3.82,3.82,0,0,1,.26,1.56,6.3,6.3,0,0,1-.55,2.68,7,7,0,0,1-1.42,2l2.07,3.61a.39.39,0,0,1,0,.18.68.68,0,0,1-.09.33.51.51,0,0,1-.21.24L205,130c-.18.11-.32.12-.4.05a.86.86,0,0,1-.19-.2l-2-3.51-2.35,1.36v4.65a.81.81,0,0,1-.12.41.69.69,0,0,1-.25.3l-.57.32a.23.23,0,0,1-.26,0,.35.35,0,0,1-.1-.29V121.29a.88.88,0,0,1,.1-.41.78.78,0,0,1,.26-.3ZM200.11,126l2.31-1.34a4.39,4.39,0,0,0,1.52-1.4,3.58,3.58,0,0,0,.54-2c0-.78-.18-1.22-.54-1.34a2.06,2.06,0,0,0-1.52.4l-2.31,1.34Z" style="fill:#455a64"></path><path d="M207.14,123.1a8.89,8.89,0,0,1,.94-3.39,7,7,0,0,1,.95-1.41,5.23,5.23,0,0,1,1.24-1,3,3,0,0,1,1.32-.44,1.42,1.42,0,0,1,1,.35,2.37,2.37,0,0,1,.63,1.1,6.51,6.51,0,0,1,.21,1.79v.49a.82.82,0,0,1-.11.41.67.67,0,0,1-.25.29L208.36,124v.11c0,.82.21,1.35.57,1.58a1.21,1.21,0,0,0,1.34-.11,3.64,3.64,0,0,0,1.13-.94,5.59,5.59,0,0,0,.61-1,2.21,2.21,0,0,1,.19-.31,1.09,1.09,0,0,1,.25-.2l.41-.23a.24.24,0,0,1,.27,0c.09,0,.12.14.1.29a4.22,4.22,0,0,1-.23.85,5.39,5.39,0,0,1-.56,1,6.74,6.74,0,0,1-.9,1.09,6,6,0,0,1-1.27,1,2.5,2.5,0,0,1-1.23.39,1.46,1.46,0,0,1-.95-.33,2.13,2.13,0,0,1-.65-.93,5.09,5.09,0,0,1-.3-1.48A9.42,9.42,0,0,1,207.14,123.1Zm1.22-.65,3.84-2.22v0a1.69,1.69,0,0,0-.52-1.48,1.31,1.31,0,0,0-1.41.14,3.75,3.75,0,0,0-.74.6,5.28,5.28,0,0,0-.6.84,5.06,5.06,0,0,0-.41,1,4.57,4.57,0,0,0-.16,1.1Z" style="fill:#455a64"></path><path d="M219.14,119.2a.7.7,0,0,0-.14-.49.58.58,0,0,0-.43-.15,3,3,0,0,0-.74.12l-1,.28c-.74.22-1.26.18-1.55-.13a2,2,0,0,1-.45-1.43,4.2,4.2,0,0,1,.17-1.14,5,5,0,0,1,.49-1.16,5.19,5.19,0,0,1,.83-1.08,5.31,5.31,0,0,1,1.17-.89,3.62,3.62,0,0,1,1.17-.48,1.66,1.66,0,0,1,.84,0,1,1,0,0,1,.52.36,1.06,1.06,0,0,1,.19.58.68.68,0,0,1-.1.4.73.73,0,0,1-.27.3l-.45.26a.43.43,0,0,1-.2.07.2.2,0,0,1-.21-.08.67.67,0,0,0-.53-.22,2,2,0,0,0-1,.35,3.18,3.18,0,0,0-1,.9,1.79,1.79,0,0,0-.39,1.08.79.79,0,0,0,.11.49.43.43,0,0,0,.35.16,2.17,2.17,0,0,0,.65-.09l1-.27a3.14,3.14,0,0,1,1.05-.15,1.3,1.3,0,0,1,.69.25,1.21,1.21,0,0,1,.37.57,3,3,0,0,1,.11.84,3.94,3.94,0,0,1-.2,1.17,5,5,0,0,1-.57,1.22,6.83,6.83,0,0,1-.9,1.14,5.69,5.69,0,0,1-1.19.93,3.74,3.74,0,0,1-1.19.47,2,2,0,0,1-.89,0,1,1,0,0,1-.57-.36,1,1,0,0,1-.21-.58.75.75,0,0,1,.09-.4.77.77,0,0,1,.28-.31l.49-.28.19-.08q.1,0,.21.09a.72.72,0,0,0,.6.27,2.21,2.21,0,0,0,1-.36,3.27,3.27,0,0,0,.59-.43,3.88,3.88,0,0,0,.52-.56,3.18,3.18,0,0,0,.36-.6A1.3,1.3,0,0,0,219.14,119.2Z" style="fill:#455a64"></path><path d="M221.69,114.7A7.56,7.56,0,0,1,222,113a9.11,9.11,0,0,1,.64-1.65,7,7,0,0,1,1-1.41,4.79,4.79,0,0,1,1.24-1,2.8,2.8,0,0,1,1.32-.45,1.38,1.38,0,0,1,1,.35,2.26,2.26,0,0,1,.63,1.1,6.16,6.16,0,0,1,.22,1.79v.49a.93.93,0,0,1-.11.41.71.71,0,0,1-.26.3l-4.71,2.71v.11c0,.82.21,1.35.57,1.58a1.23,1.23,0,0,0,1.35-.11,3.77,3.77,0,0,0,1.13-.93,6.32,6.32,0,0,0,.61-1,2.21,2.21,0,0,1,.19-.31.9.9,0,0,1,.25-.19l.41-.24a.24.24,0,0,1,.27,0c.08.05.11.14.1.29a3.74,3.74,0,0,1-.24.85,4.84,4.84,0,0,1-.55,1.05,6.74,6.74,0,0,1-.9,1.09,6.23,6.23,0,0,1-1.27,1,2.57,2.57,0,0,1-1.23.39,1.45,1.45,0,0,1-1-.33,2.13,2.13,0,0,1-.65-.93,4.51,4.51,0,0,1-.3-1.48A9.42,9.42,0,0,1,221.69,114.7Zm1.21-.65,3.85-2.22v0a1.69,1.69,0,0,0-.53-1.48c-.35-.24-.82-.19-1.4.15a3.15,3.15,0,0,0-.74.6,3.74,3.74,0,0,0-.6.84,4.75,4.75,0,0,0-.41,1,4.58,4.58,0,0,0-.17,1.1Z" style="fill:#455a64"></path><path d="M231.44,111.53a3.8,3.8,0,0,0,.05.62.9.9,0,0,0,.17.42.39.39,0,0,0,.35.14,1.37,1.37,0,0,0,.58-.22l.73-.42a.21.21,0,0,1,.26,0,.33.33,0,0,1,.11.28v.59a.93.93,0,0,1-.11.41.74.74,0,0,1-.26.29l-.86.5c-.8.46-1.37.51-1.73.17a2.93,2.93,0,0,1-.53-2.06v-4.73l-1,.59a.21.21,0,0,1-.26,0,.31.31,0,0,1-.11-.28v-.58a.79.79,0,0,1,.11-.41.71.71,0,0,1,.26-.3l1-.59v-3a.93.93,0,0,1,.11-.41.71.71,0,0,1,.26-.3l.5-.29a.21.21,0,0,1,.26,0,.31.31,0,0,1,.11.28v3l1.74-1a.21.21,0,0,1,.26,0,.33.33,0,0,1,.11.28v.59a.86.86,0,0,1-.11.4.71.71,0,0,1-.26.3l-1.74,1Z" style="fill:#455a64"></path><path d="M240.13,112.74a1.84,1.84,0,0,1-.13.37.67.67,0,0,1-.26.29l-.56.33a.21.21,0,0,1-.24,0,.3.3,0,0,1-.09-.25.61.61,0,0,1,0-.14l1.31-4.57-2.7-6.45a.37.37,0,0,1,0-.12.7.7,0,0,1,.1-.36.59.59,0,0,1,.23-.26l.56-.33c.11-.06.2-.06.26,0a.6.6,0,0,1,.14.21l2.11,5L243,99a1.94,1.94,0,0,1,.14-.37.62.62,0,0,1,.26-.29l.56-.33a.21.21,0,0,1,.23,0,.33.33,0,0,1,.1.26.51.51,0,0,1,0,.13Z" style="fill:#455a64"></path><path d="M248.3,95.32a3,3,0,0,1,1.32-.46,1.52,1.52,0,0,1,1,.26,1.93,1.93,0,0,1,.65.91,5.17,5.17,0,0,1,.3,1.49c0,.1,0,.23,0,.38v.95c0,.15,0,.28,0,.38a11,11,0,0,1-.3,1.84,7.58,7.58,0,0,1-.65,1.64,6.9,6.9,0,0,1-1,1.4,5.4,5.4,0,0,1-1.32,1.06,3,3,0,0,1-1.31.46,1.57,1.57,0,0,1-1-.26,2,2,0,0,1-.65-.9,5.11,5.11,0,0,1-.29-1.49,3.57,3.57,0,0,1,0-.37c0-.15,0-.3,0-.47s0-.32,0-.48,0-.28,0-.4a9.33,9.33,0,0,1,.29-1.82,7.86,7.86,0,0,1,.65-1.66,7.36,7.36,0,0,1,1-1.4A5.35,5.35,0,0,1,248.3,95.32Zm2,4.54q0-.33,0-.78c0-.29,0-.55,0-.76a3.86,3.86,0,0,0-.18-.91,1.27,1.27,0,0,0-.38-.6.83.83,0,0,0-.6-.2,1.69,1.69,0,0,0-.84.28,3.21,3.21,0,0,0-.83.68,3.92,3.92,0,0,0-.6.9,4.46,4.46,0,0,0-.39,1,6.06,6.06,0,0,0-.17,1.12c0,.23,0,.5,0,.79s0,.55,0,.75a3.43,3.43,0,0,0,.17.91,1.21,1.21,0,0,0,.39.6.83.83,0,0,0,.6.2,1.66,1.66,0,0,0,.83-.28,3.26,3.26,0,0,0,.84-.68,3.92,3.92,0,0,0,.6-.9,4.94,4.94,0,0,0,.38-1A7.06,7.06,0,0,0,250.3,99.86Z" style="fill:#455a64"></path><path d="M253.22,93.16a.88.88,0,0,1,.1-.41.8.8,0,0,1,.27-.3l.5-.29a.21.21,0,0,1,.26,0,.33.33,0,0,1,.11.28v4.82a2.52,2.52,0,0,0,.47,1.82c.32.28.78.25,1.38-.1a3.42,3.42,0,0,0,1.35-1.48,5.2,5.2,0,0,0,.5-2.38V90.31a.79.79,0,0,1,.11-.41.65.65,0,0,1,.26-.3l.5-.29a.23.23,0,0,1,.26,0,.35.35,0,0,1,.11.29v8.5a.93.93,0,0,1-.11.41.62.62,0,0,1-.26.29l-.5.3c-.11.06-.19.06-.26,0a.31.31,0,0,1-.11-.28v-.57a7.2,7.2,0,0,1-.74,1.28,4.16,4.16,0,0,1-1.32,1.15,2.67,2.67,0,0,1-1.17.4,1.37,1.37,0,0,1-.92-.28,1.86,1.86,0,0,1-.59-.94,5.2,5.2,0,0,1-.2-1.6Z" style="fill:#455a64"></path><path d="M265.07,85.82a.21.21,0,0,1,.26,0,.33.33,0,0,1,.11.28v.59a.93.93,0,0,1-.11.41.75.75,0,0,1-.26.29l-.8.46a3.2,3.2,0,0,0-1.57,3v5.33a.93.93,0,0,1-.11.41.74.74,0,0,1-.26.29l-.51.29a.23.23,0,0,1-.26,0,.35.35,0,0,1-.11-.29V88.4a.93.93,0,0,1,.11-.41.68.68,0,0,1,.26-.29l.51-.3a.21.21,0,0,1,.26,0,.33.33,0,0,1,.11.28v.57a4.13,4.13,0,0,1,.66-1.18,3.36,3.36,0,0,1,1-.84Z" style="fill:#455a64"></path><path d="M204.2,137.71a6.32,6.32,0,0,1,2-.81,2.22,2.22,0,0,1,1.49.14,2.13,2.13,0,0,1,1,1.13,5.61,5.61,0,0,1,.34,2.14,9.19,9.19,0,0,1-.34,2.55,8.8,8.8,0,0,1-1,2.22,9.49,9.49,0,0,1-1.49,1.87,10.05,10.05,0,0,1-2,1.48L202,149.7v4.66a1,1,0,0,1-.14.52.92.92,0,0,1-.32.37l-2.25,1.29a.26.26,0,0,1-.32,0,.4.4,0,0,1-.14-.36V141.42a1,1,0,0,1,.14-.51.85.85,0,0,1,.32-.37Zm-2.2,8.42,2.11-1.22a3.42,3.42,0,0,0,1.19-1.11,2.81,2.81,0,0,0,.47-1.65c0-.65-.15-1-.47-1.12a1.52,1.52,0,0,0-1.19.27L202,142.52Z" style="fill:#407BFF"></path><path d="M216.1,130.83c.23-.13.4-.14.52-.05a.81.81,0,0,1,.25.36l3.74,12.25a1.22,1.22,0,0,1,.07.3.94.94,0,0,1-.11.42.77.77,0,0,1-.27.31l-2.16,1.24c-.23.13-.39.16-.49.09a.41.41,0,0,1-.18-.27l-.48-1.62-4.56,2.63-.48,2.18a2.47,2.47,0,0,1-.18.48,1.24,1.24,0,0,1-.49.47l-2.16,1.25a.24.24,0,0,1-.27,0,.37.37,0,0,1-.11-.29,1.6,1.6,0,0,1,.07-.39l3.74-16.56a2.68,2.68,0,0,1,.25-.65,1.31,1.31,0,0,1,.52-.55Zm-2.78,11.6,2.78-1.6-1.39-4.69Z" style="fill:#407BFF"></path><path d="M226.3,124.71a5.39,5.39,0,0,1,2-.74,3.19,3.19,0,0,1,1.58.17,2.23,2.23,0,0,1,1,.86,2.59,2.59,0,0,1,.4,1.31.9.9,0,0,1-.12.42.65.65,0,0,1-.24.29l-2.25,1.3a.84.84,0,0,1-.39.13.76.76,0,0,1-.3-.1l-.16-.14a.87.87,0,0,0-.32-.15,1.44,1.44,0,0,0-.51,0,2.58,2.58,0,0,0-.76.31c-.21.13-.42.27-.62.42a4.21,4.21,0,0,0-.53.49,2.36,2.36,0,0,0-.38.57,1.52,1.52,0,0,0-.15.66.63.63,0,0,0,.16.48.79.79,0,0,0,.55.1,5.66,5.66,0,0,0,1-.21l1.57-.48a6.81,6.81,0,0,1,1.65-.31,2,2,0,0,1,1.17.3,1.88,1.88,0,0,1,.71,1,5.48,5.48,0,0,1,.23,1.73,6.85,6.85,0,0,1-.4,2.31,9.7,9.7,0,0,1-1.1,2.21,11.54,11.54,0,0,1-1.68,2,12,12,0,0,1-2.12,1.57,6.29,6.29,0,0,1-2.13.82,3.15,3.15,0,0,1-1.65-.14,2.13,2.13,0,0,1-1.09-.89,2.71,2.71,0,0,1-.41-1.48.82.82,0,0,1,.11-.41.64.64,0,0,1,.25-.3l2.24-1.29a.77.77,0,0,1,.38-.14.63.63,0,0,1,.28.08l.2.18a1.16,1.16,0,0,0,.37.21,1.19,1.19,0,0,0,.58,0,2.37,2.37,0,0,0,.87-.34,7.44,7.44,0,0,0,1.52-1.14,1.86,1.86,0,0,0,.61-1.3.42.42,0,0,0-.23-.44,1.26,1.26,0,0,0-.67,0,8.35,8.35,0,0,0-1.14.28c-.46.15-1,.31-1.63.49a2.73,2.73,0,0,1-2.59-.19,3.46,3.46,0,0,1-.81-2.67,7.08,7.08,0,0,1,.33-2.07,10,10,0,0,1,1-2.14,11,11,0,0,1,1.54-2A9.24,9.24,0,0,1,226.3,124.71Z" style="fill:#407BFF"></path><path d="M237.86,118a5.39,5.39,0,0,1,2-.74,3.08,3.08,0,0,1,1.58.17,2.18,2.18,0,0,1,1,.86,2.45,2.45,0,0,1,.39,1.3.83.83,0,0,1-.11.42.69.69,0,0,1-.25.3l-2.24,1.29a.74.74,0,0,1-.39.13.63.63,0,0,1-.3-.1l-.16-.13a.68.68,0,0,0-.32-.15,1.09,1.09,0,0,0-.51,0,2.33,2.33,0,0,0-.76.31,4.83,4.83,0,0,0-.62.42,3.62,3.62,0,0,0-.54.49,2.15,2.15,0,0,0-.37.57,1.52,1.52,0,0,0-.15.66.62.62,0,0,0,.16.47.78.78,0,0,0,.55.11,5.43,5.43,0,0,0,1-.21c.43-.12,1-.28,1.58-.48a6.36,6.36,0,0,1,1.65-.31,2,2,0,0,1,1.17.29,1.86,1.86,0,0,1,.71,1,5.44,5.44,0,0,1,.23,1.73,6.85,6.85,0,0,1-.4,2.31,9.43,9.43,0,0,1-1.1,2.2,11.61,11.61,0,0,1-1.68,2,11.94,11.94,0,0,1-2.12,1.56,6.09,6.09,0,0,1-2.13.82,3.15,3.15,0,0,1-1.65-.13,2.18,2.18,0,0,1-1.09-.89,2.73,2.73,0,0,1-.41-1.48.85.85,0,0,1,.11-.42.61.61,0,0,1,.25-.29l2.24-1.3a.74.74,0,0,1,.38-.13.52.52,0,0,1,.28.08l.2.18a1.16,1.16,0,0,0,.37.21,1.32,1.32,0,0,0,.58,0,2.57,2.57,0,0,0,.87-.34,7.44,7.44,0,0,0,1.52-1.14,1.86,1.86,0,0,0,.6-1.3.44.44,0,0,0-.22-.45,1.39,1.39,0,0,0-.67,0,7.08,7.08,0,0,0-1.14.28l-1.64.49a2.71,2.71,0,0,1-2.58-.19,3.5,3.5,0,0,1-.81-2.68,7.18,7.18,0,0,1,.33-2.07,10.11,10.11,0,0,1,1-2.13,11.11,11.11,0,0,1,1.54-2A9.51,9.51,0,0,1,237.86,118Z" style="fill:#407BFF"></path><path d="M253.14,117.79l1.1-8.36a1.51,1.51,0,0,1,.21-.6,1,1,0,0,1,.32-.32l2.25-1.3a.24.24,0,0,1,.27,0,.37.37,0,0,1,.11.29c0,.05,0,.11,0,.2l-2.21,15.73a1.94,1.94,0,0,1-.28.75,1.63,1.63,0,0,1-.58.61l-1.42.82a.51.51,0,0,1-.56.05.82.82,0,0,1-.3-.42l-1.29-4.43-1.28,5.91a3.22,3.22,0,0,1-.3.77,1.55,1.55,0,0,1-.56.6l-1.42.82a.59.59,0,0,1-.59.06.52.52,0,0,1-.27-.44l-2.21-13.17a.59.59,0,0,1,0-.17.94.94,0,0,1,.11-.42.67.67,0,0,1,.27-.3l2.24-1.3a.4.4,0,0,1,.33,0c.1,0,.17.15.2.36l1.1,7.1,1-4.73a5.23,5.23,0,0,1,.16-.5,1,1,0,0,1,.43-.5l1.61-.93c.21-.12.35-.12.43,0a.91.91,0,0,1,.15.32Z" style="fill:#407BFF"></path><path d="M258.51,112.32a12.47,12.47,0,0,1,.42-2.66,12,12,0,0,1,1.05-2.57,11.41,11.41,0,0,1,1.65-2.28,9.45,9.45,0,0,1,2.23-1.78,5.5,5.5,0,0,1,2.23-.8,2.7,2.7,0,0,1,1.66.37,2.79,2.79,0,0,1,1,1.37,6.3,6.3,0,0,1,.42,2.17c0,.64,0,1.32,0,2s0,1.4,0,2a11.24,11.24,0,0,1-.42,2.65,11.52,11.52,0,0,1-1,2.58,11.24,11.24,0,0,1-1.66,2.29,9.57,9.57,0,0,1-2.23,1.76,5.44,5.44,0,0,1-2.23.81,2.48,2.48,0,0,1-1.65-.37,2.92,2.92,0,0,1-1.05-1.37,6.91,6.91,0,0,1-.42-2.17c0-.62,0-1.28,0-2S258.49,113,258.51,112.32Zm7.53-.4c0-.28,0-.59,0-.93s0-.69,0-1,0-.69,0-1,0-.6,0-.86a3.21,3.21,0,0,0-.18-1,1.25,1.25,0,0,0-.41-.59.92.92,0,0,0-.66-.18,2.09,2.09,0,0,0-.93.33,3.7,3.7,0,0,0-.92.74,4,4,0,0,0-.66.94,5.17,5.17,0,0,0-.42,1.07,6.36,6.36,0,0,0-.17,1.16c0,.27,0,.57-.05.9s0,.67,0,1,0,.69,0,1,0,.63.05.89a2.15,2.15,0,0,0,.59,1.56c.35.3.87.24,1.58-.16a3.85,3.85,0,0,0,1.58-1.67A6.16,6.16,0,0,0,266,111.92Z" style="fill:#407BFF"></path><path d="M276.33,96.06a7.19,7.19,0,0,1,2-.85,2.43,2.43,0,0,1,1.51.08,1.91,1.91,0,0,1,1,1.09,5.43,5.43,0,0,1,.34,2.12,9.15,9.15,0,0,1-.53,3.16,8.72,8.72,0,0,1-1.51,2.59l2.12,4.22a.46.46,0,0,1,.06.22.84.84,0,0,1-.12.42.71.71,0,0,1-.26.3l-2.33,1.35c-.23.13-.4.16-.49.08a1.23,1.23,0,0,1-.24-.28l-1.9-3.8-1.58.91v4.9a1.07,1.07,0,0,1-.13.51.87.87,0,0,1-.33.37l-2.25,1.3a.27.27,0,0,1-.32,0,.4.4,0,0,1-.14-.35V99.63a1.16,1.16,0,0,1,.14-.52,1,1,0,0,1,.32-.37Zm-1.94,8,1.94-1.12a3.8,3.8,0,0,0,1.19-1.06,2.54,2.54,0,0,0,.47-1.59c0-.65-.15-1-.47-1.06a1.85,1.85,0,0,0-1.19.32l-1.94,1.12Z" style="fill:#407BFF"></path><path d="M288.15,89.24a5.37,5.37,0,0,1,2.16-.78,2.63,2.63,0,0,1,1.69.34,2.89,2.89,0,0,1,1.11,1.38,6.62,6.62,0,0,1,.46,2.31c0,.31,0,.6,0,.87v1.52c0,.26,0,.54,0,.85a11.93,11.93,0,0,1-.45,2.85,11.75,11.75,0,0,1-1.09,2.64,11.27,11.27,0,0,1-1.65,2.27,9.21,9.21,0,0,1-2.15,1.7l-4.63,2.68a.27.27,0,0,1-.32,0,.41.41,0,0,1-.14-.35V92.75a1.16,1.16,0,0,1,.14-.52.92.92,0,0,1,.32-.37Zm2.25,5c-.07-1.72-.85-2.14-2.34-1.29l-1.75,1v8.69l1.84-1.06a4.39,4.39,0,0,0,2.25-3.92c0-.33,0-.63,0-.91V95.11C290.41,94.84,290.41,94.54,290.4,94.23Z" style="fill:#407BFF"></path><path d="M185.67,243.5a.46.46,0,0,1-.46-.46v-117a.46.46,0,0,1,.46-.46.47.47,0,0,1,.47.46V243A.47.47,0,0,1,185.67,243.5Z" style="fill:#e0e0e0"></path><path d="M198.25,198.61a1,1,0,0,1-.52-.14,1.43,1.43,0,0,1-.63-1.31V182.94a3.17,3.17,0,0,1,1.37-2.56L294.38,125a1.2,1.2,0,0,1,1.21-.06,1.45,1.45,0,0,1,.63,1.32v14.21a3.15,3.15,0,0,1-1.37,2.56l-95.92,55.38A1.35,1.35,0,0,1,198.25,198.61Zm96.82-72.87a.46.46,0,0,0-.22.08l-95.92,55.37a2.26,2.26,0,0,0-.89,1.75v14.22a.68.68,0,0,0,.15.51c.06,0,.16,0,.28-.06l95.91-55.38h0a2.24,2.24,0,0,0,.9-1.75V126.27c0-.29-.08-.47-.16-.51Z" style="fill:#e0e0e0"></path><path d="M201,175.3c-.06,0-.11,0-.14,0a.38.38,0,0,1-.11-.11l-2-2.86v4a.41.41,0,0,1-.05.18.43.43,0,0,1-.12.14l-.25.14a.11.11,0,0,1-.12,0,.14.14,0,0,1-.05-.13V171.4a.36.36,0,0,1,.05-.19.26.26,0,0,1,.12-.13l.21-.13a.14.14,0,0,1,.15,0,.36.36,0,0,1,.1.11l2,2.87v-4.06a.31.31,0,0,1,0-.18.29.29,0,0,1,.11-.13l.26-.15a.08.08,0,0,1,.11,0s0,.07,0,.13v5.31a.32.32,0,0,1,0,.19.29.29,0,0,1-.11.13Z" style="fill:#455a64"></path><path d="M202.23,172a4.2,4.2,0,0,1,.13-.79,5.42,5.42,0,0,1,.29-.74,3.25,3.25,0,0,1,.43-.64,2.41,2.41,0,0,1,.56-.46,1.28,1.28,0,0,1,.6-.2.62.62,0,0,1,.45.16,1.09,1.09,0,0,1,.28.49,2.71,2.71,0,0,1,.1.81v.22a.49.49,0,0,1,0,.19.3.3,0,0,1-.12.13l-2.12,1.23v0c0,.37.09.61.25.72a.57.57,0,0,0,.61,0,1.49,1.49,0,0,0,.51-.43,2.15,2.15,0,0,0,.28-.44l.08-.14.12-.09.18-.1a.11.11,0,0,1,.12,0,.12.12,0,0,1,0,.13,1.46,1.46,0,0,1-.11.39,2,2,0,0,1-.25.47,2.6,2.6,0,0,1-.41.49,2.51,2.51,0,0,1-.57.43,1.11,1.11,0,0,1-.55.18.64.64,0,0,1-.43-.15,1,1,0,0,1-.3-.42,2.41,2.41,0,0,1-.13-.67A4.69,4.69,0,0,1,202.23,172Zm.55-.3,1.73-1v0c0-.34-.07-.56-.23-.67s-.37-.09-.64.07a1.4,1.4,0,0,0-.33.27,1.84,1.84,0,0,0-.27.38,2.25,2.25,0,0,0-.19.45,2.15,2.15,0,0,0-.07.5Z" style="fill:#455a64"></path><path d="M208.74,169.49l.7-3.15a.7.7,0,0,1,.06-.17.43.43,0,0,1,.15-.15l.2-.11s.08,0,.1,0a.15.15,0,0,1,.05.12.2.2,0,0,1,0,.07l-.94,4.33a.77.77,0,0,1-.07.2.24.24,0,0,1-.12.14l-.19.11s-.09,0-.12,0a.35.35,0,0,1-.07-.12l-.74-2.31L207,171.6c0,.07,0,.14-.07.2a.33.33,0,0,1-.12.14l-.19.11q-.09,0-.12,0a.27.27,0,0,1-.07-.12l-.94-3.25a.13.13,0,0,1,0-.06.32.32,0,0,1,0-.16.26.26,0,0,1,.11-.12l.2-.12c.06,0,.11,0,.14,0a.17.17,0,0,1,.07.1l.69,2.35.75-3.18a1.54,1.54,0,0,1,0-.17.32.32,0,0,1,.14-.14l.13-.08c.06,0,.11,0,.13,0a.21.21,0,0,1,.06.1Z" style="fill:#455a64"></path><path d="M213.85,162.12a1.67,1.67,0,0,1,.57-.23.66.66,0,0,1,.8.4,1.71,1.71,0,0,1,.12.71,3,3,0,0,1-.12.86,2.92,2.92,0,0,1-.33.74,2.55,2.55,0,0,1-.47.6,2.9,2.9,0,0,1-.57.44l-1.14.66v2a.41.41,0,0,1-.05.19.26.26,0,0,1-.12.13l-.25.15a.09.09,0,0,1-.12,0,.16.16,0,0,1,0-.13v-5.32a.41.41,0,0,1,0-.18.38.38,0,0,1,.12-.13Zm-1.14,3.44,1.11-.64a2.05,2.05,0,0,0,.69-.65,1.79,1.79,0,0,0,.24-.93c0-.35-.08-.56-.24-.62a.79.79,0,0,0-.69.16l-1.11.63Z" style="fill:#455a64"></path><path d="M215.72,165.72a1.89,1.89,0,0,1,.1-.63,2.18,2.18,0,0,1,.27-.58,3.2,3.2,0,0,1,.4-.51,5.35,5.35,0,0,1,.5-.45l.87-.69v-.11q0-.42-.21-.51a.58.58,0,0,0-.52.09,1.23,1.23,0,0,0-.41.37,2.38,2.38,0,0,0-.23.45.73.73,0,0,1-.09.13.27.27,0,0,1-.11.1l-.19.1a.11.11,0,0,1-.12,0,.14.14,0,0,1,0-.13,1.37,1.37,0,0,1,.1-.44,2.95,2.95,0,0,1,.64-.94,1.87,1.87,0,0,1,.45-.36,1.38,1.38,0,0,1,.52-.19.57.57,0,0,1,.41.08.69.69,0,0,1,.26.35,1.71,1.71,0,0,1,.1.65V165a.49.49,0,0,1,0,.19.3.3,0,0,1-.12.13l-.23.13a.08.08,0,0,1-.11,0s0-.07,0-.13V165a1.57,1.57,0,0,1-.18.37,1.54,1.54,0,0,1-.27.36,2.91,2.91,0,0,1-.31.3,1.79,1.79,0,0,1-.31.22,1.28,1.28,0,0,1-.44.17.63.63,0,0,1-.34-.05.5.5,0,0,1-.21-.24A.9.9,0,0,1,215.72,165.72Zm1.14-.2a2.06,2.06,0,0,0,.4-.33,2.08,2.08,0,0,0,.52-.93,2,2,0,0,0,.08-.54v-.2l-.73.57a3.62,3.62,0,0,0-.62.62,1.06,1.06,0,0,0-.23.61.41.41,0,0,0,0,.16.22.22,0,0,0,.1.11.26.26,0,0,0,.18,0A.65.65,0,0,0,216.86,165.52Z" style="fill:#455a64"></path><path d="M221.15,162.48a.28.28,0,0,0-.07-.22.22.22,0,0,0-.19-.07,1.56,1.56,0,0,0-.33.05l-.47.13c-.33.1-.57.08-.7-.06a.91.91,0,0,1-.2-.64,2,2,0,0,1,.3-1,2.31,2.31,0,0,1,.9-.89,1.45,1.45,0,0,1,.53-.21.69.69,0,0,1,.38,0,.44.44,0,0,1,.23.16.58.58,0,0,1,.09.26.31.31,0,0,1-.05.18.28.28,0,0,1-.12.14l-.2.12-.09,0a.1.1,0,0,1-.1,0,.3.3,0,0,0-.24-.1.92.92,0,0,0-.43.16,1.5,1.5,0,0,0-.46.4.85.85,0,0,0-.18.49.44.44,0,0,0,.05.23.24.24,0,0,0,.16.07,1.3,1.3,0,0,0,.3,0l.45-.13a1.49,1.49,0,0,1,.48-.06.54.54,0,0,1,.3.11.48.48,0,0,1,.17.26,1.4,1.4,0,0,1,.05.38,1.78,1.78,0,0,1-.09.53,2.28,2.28,0,0,1-.26.55,2.72,2.72,0,0,1-.4.51,2.79,2.79,0,0,1-.54.42,1.42,1.42,0,0,1-.54.21.88.88,0,0,1-.4,0,.48.48,0,0,1-.26-.17.39.39,0,0,1-.09-.26.3.3,0,0,1,0-.18.35.35,0,0,1,.13-.14l.22-.12a.2.2,0,0,1,.08,0,.09.09,0,0,1,.1,0,.32.32,0,0,0,.27.12,1,1,0,0,0,.45-.16,2.22,2.22,0,0,0,.27-.19,1.38,1.38,0,0,0,.23-.26,1,1,0,0,0,.17-.27A.65.65,0,0,0,221.15,162.48Z" style="fill:#455a64"></path><path d="M224.27,160.68a.35.35,0,0,0-.06-.23.3.3,0,0,0-.2-.06,1.76,1.76,0,0,0-.33.05l-.46.13c-.34.1-.57.08-.7-.06a.89.89,0,0,1-.2-.65,1.89,1.89,0,0,1,.07-.51,2.14,2.14,0,0,1,.22-.52,2,2,0,0,1,.38-.49,2.32,2.32,0,0,1,.52-.4,1.81,1.81,0,0,1,.53-.22.94.94,0,0,1,.38,0,.53.53,0,0,1,.24.17.45.45,0,0,1,.08.26.31.31,0,0,1,0,.18.44.44,0,0,1-.13.14l-.2.11a.12.12,0,0,1-.09,0,.09.09,0,0,1-.09,0,.3.3,0,0,0-.24-.1.91.91,0,0,0-.44.15,1.52,1.52,0,0,0-.46.41.86.86,0,0,0-.17.49.33.33,0,0,0,.05.22.17.17,0,0,0,.16.07.86.86,0,0,0,.29,0l.45-.12a1.26,1.26,0,0,1,.48-.06.51.51,0,0,1,.48.36,1.48,1.48,0,0,1,0,.38,1.71,1.71,0,0,1-.08.53,2.5,2.5,0,0,1-.26.55,3.22,3.22,0,0,1-.41.52,2,2,0,0,1-.54.41,1.71,1.71,0,0,1-.53.22,1,1,0,0,1-.4,0,.5.5,0,0,1-.26-.17.52.52,0,0,1-.1-.26.31.31,0,0,1,.05-.18.28.28,0,0,1,.12-.14l.22-.13.09,0s.06,0,.09,0a.34.34,0,0,0,.27.12,1,1,0,0,0,.45-.16,2.34,2.34,0,0,0,.27-.2,1.88,1.88,0,0,0,.24-.25,1.91,1.91,0,0,0,.16-.27A.65.65,0,0,0,224.27,160.68Z" style="fill:#455a64"></path><path d="M228.5,158.09l.69-3.15.07-.18a.38.38,0,0,1,.14-.14l.21-.12a.09.09,0,0,1,.1,0,.13.13,0,0,1,0,.11s0,0,0,.07l-.94,4.33a1,1,0,0,1-.07.21.3.3,0,0,1-.12.13l-.19.11c-.05,0-.1,0-.12,0a.35.35,0,0,1-.07-.12L227.5,157l-.73,3.16c0,.07-.05.14-.07.2a.28.28,0,0,1-.12.14l-.2.11s-.09,0-.12,0a.53.53,0,0,1-.06-.13l-.95-3.24v-.07a.32.32,0,0,1,0-.16.43.43,0,0,1,.11-.12l.2-.12c.06,0,.11,0,.14,0a.16.16,0,0,1,.07.09l.69,2.35.74-3.18a1.66,1.66,0,0,1,.06-.16.37.37,0,0,1,.13-.15l.14-.07c.06,0,.11,0,.13,0a.18.18,0,0,1,.06.09Z" style="fill:#455a64"></path><path d="M231.67,153.23a1.36,1.36,0,0,1,.59-.21.66.66,0,0,1,.45.12.87.87,0,0,1,.29.41,2.39,2.39,0,0,1,.14.67V155a4.5,4.5,0,0,1-.14.83,3.67,3.67,0,0,1-.29.74,2.79,2.79,0,0,1-.45.63,2.48,2.48,0,0,1-.59.48,1.36,1.36,0,0,1-.59.21.7.7,0,0,1-.45-.12.87.87,0,0,1-.29-.41,2.34,2.34,0,0,1-.13-.67.71.71,0,0,1,0-.16v-.43a1,1,0,0,1,0-.18,4.38,4.38,0,0,1,.13-.82,3.54,3.54,0,0,1,.29-.75,3.33,3.33,0,0,1,.45-.64A2.22,2.22,0,0,1,231.67,153.23Zm.9,2a3.11,3.11,0,0,0,0-.34,3.32,3.32,0,0,0,0-.35,1.66,1.66,0,0,0-.08-.41.53.53,0,0,0-.17-.27.4.4,0,0,0-.27-.09.83.83,0,0,0-.38.12,1.6,1.6,0,0,0-.37.31,2,2,0,0,0-.28.41,2.17,2.17,0,0,0-.17.47,2.74,2.74,0,0,0-.08.5c0,.11,0,.23,0,.36a3.33,3.33,0,0,0,0,.34,1.66,1.66,0,0,0,.08.41.6.6,0,0,0,.17.27.45.45,0,0,0,.28.09.72.72,0,0,0,.37-.13,1.4,1.4,0,0,0,.38-.3,1.82,1.82,0,0,0,.27-.41,1.75,1.75,0,0,0,.17-.47A2.72,2.72,0,0,0,232.57,155.27Z" style="fill:#455a64"></path><path d="M235.55,151.07s.09,0,.12,0a.14.14,0,0,1,.05.12v.27a.41.41,0,0,1-.05.18.28.28,0,0,1-.12.14l-.36.2a1.46,1.46,0,0,0-.71,1.36v2.41a.31.31,0,0,1,0,.18.29.29,0,0,1-.11.13l-.23.14a.13.13,0,0,1-.12,0,.17.17,0,0,1-.05-.13v-3.84a.41.41,0,0,1,.05-.18.28.28,0,0,1,.12-.14l.23-.13s.08,0,.11,0,0,.07,0,.13v.25a2,2,0,0,1,.3-.53,1.56,1.56,0,0,1,.45-.38Z" style="fill:#455a64"></path><path d="M237.43,149.9a1,1,0,0,1,.61-.17.62.62,0,0,1,.35.18v-1.82a.46.46,0,0,1,0-.19.51.51,0,0,1,.12-.13l.23-.13a.09.09,0,0,1,.12,0,.16.16,0,0,1,0,.13v5.4a.41.41,0,0,1,0,.18.34.34,0,0,1-.12.14l-.23.13a.11.11,0,0,1-.12,0s0-.07,0-.13v-.25a2.92,2.92,0,0,1-.36.59,2.05,2.05,0,0,1-.6.52,1.32,1.32,0,0,1-.54.18.74.74,0,0,1-.44-.14,1,1,0,0,1-.29-.45,2.23,2.23,0,0,1-.13-.74,2.26,2.26,0,0,1,0-.27,2.44,2.44,0,0,1,0-.27,3.75,3.75,0,0,1,.13-.89,3.81,3.81,0,0,1,.29-.78,3.29,3.29,0,0,1,.44-.64A1.91,1.91,0,0,1,237.43,149.9Zm1,2v-.65c0-.39-.1-.64-.27-.75s-.37-.1-.63.05a1.54,1.54,0,0,0-.64.71,2.57,2.57,0,0,0-.26,1.09,3.53,3.53,0,0,0,0,.46,1.06,1.06,0,0,0,.26.79c.15.14.37.13.64,0a1.81,1.81,0,0,0,.63-.68A2.44,2.44,0,0,0,238.39,151.93Z" style="fill:#455a64"></path><path d="M240.41,148.67a.11.11,0,0,1,.12,0,.17.17,0,0,1,.05.13v.55a.45.45,0,0,1-.05.19.26.26,0,0,1-.12.13l-.41.24q-.08,0-.12,0a.14.14,0,0,1,0-.12v-.56a.41.41,0,0,1,0-.18.33.33,0,0,1,.12-.14Zm0,2.88q.08,0,.12,0a.14.14,0,0,1,.05.12v.56a.41.41,0,0,1-.05.18.26.26,0,0,1-.12.13l-.41.24a.11.11,0,0,1-.12,0,.17.17,0,0,1,0-.13v-.55a.45.45,0,0,1,0-.19.26.26,0,0,1,.12-.13Z" style="fill:#455a64"></path><path d="M198.25,232.29a1,1,0,0,1-.52-.14,1.43,1.43,0,0,1-.63-1.31V216.62a3.17,3.17,0,0,1,1.37-2.56l95.91-55.37a1.18,1.18,0,0,1,1.21-.06,1.45,1.45,0,0,1,.63,1.32v14.21a3.15,3.15,0,0,1-1.37,2.56l-95.92,55.37A1.27,1.27,0,0,1,198.25,232.29Zm96.82-72.87a.46.46,0,0,0-.22.08l-95.92,55.37a2.26,2.26,0,0,0-.89,1.75v14.22c0,.28.08.46.15.5s.16,0,.28-.05l95.91-55.38h0a2.24,2.24,0,0,0,.9-1.75V160c0-.29-.08-.47-.16-.51Z" style="fill:#e0e0e0"></path><path d="M198.59,206.8c0,.25,0,.48,0,.7s0,.44,0,.68a1.22,1.22,0,0,0,.31.93q.28.25.84-.06a2.28,2.28,0,0,0,.5-.39,2.66,2.66,0,0,0,.34-.45,2.22,2.22,0,0,0,.2-.48,4.52,4.52,0,0,0,.11-.47.49.49,0,0,1,.06-.17.31.31,0,0,1,.1-.1l.28-.17a.09.09,0,0,1,.1,0,.12.12,0,0,1,0,.11,2.52,2.52,0,0,1-.11.65,3.46,3.46,0,0,1-.3.78,4.3,4.3,0,0,1-.53.78,3.16,3.16,0,0,1-.79.65,1.69,1.69,0,0,1-.72.24.82.82,0,0,1-.54-.15,1.12,1.12,0,0,1-.35-.5,2.76,2.76,0,0,1-.13-.82c0-.48,0-1,0-1.46a4.18,4.18,0,0,1,.48-1.88,3.61,3.61,0,0,1,.54-.78,2.87,2.87,0,0,1,.72-.58,1.65,1.65,0,0,1,.79-.27.84.84,0,0,1,.53.17.89.89,0,0,1,.3.43,1.4,1.4,0,0,1,.11.53.28.28,0,0,1,0,.15.27.27,0,0,1-.1.11l-.28.16a.12.12,0,0,1-.1,0s0,0-.06-.1a1.79,1.79,0,0,0-.11-.35.48.48,0,0,0-.2-.24.59.59,0,0,0-.34-.06,1.38,1.38,0,0,0-.5.19,2,2,0,0,0-.84.91A3,3,0,0,0,198.59,206.8Z" style="fill:#455a64"></path><path d="M203.53,203.15a1.47,1.47,0,0,1,.59-.2.65.65,0,0,1,.44.12.83.83,0,0,1,.3.41,2.41,2.41,0,0,1,.13.67s0,.1,0,.17v.43c0,.07,0,.12,0,.17a4.5,4.5,0,0,1-.14.83,3.16,3.16,0,0,1-.29.74,3.09,3.09,0,0,1-.44.63,2.48,2.48,0,0,1-.59.48,1.4,1.4,0,0,1-.6.21.65.65,0,0,1-.44-.12.88.88,0,0,1-.3-.41,2.34,2.34,0,0,1-.13-.67,1,1,0,0,0,0-.16V206a1.21,1.21,0,0,0,0-.18,4.63,4.63,0,0,1,.13-.83,3.79,3.79,0,0,1,.3-.75,3.09,3.09,0,0,1,.44-.63A2.53,2.53,0,0,1,203.53,203.15Zm.9,2c0-.1,0-.21,0-.35s0-.25,0-.34a1.57,1.57,0,0,0-.08-.41.54.54,0,0,0-.18-.27.32.32,0,0,0-.27-.09.79.79,0,0,0-.37.12,1.66,1.66,0,0,0-.38.31,1.62,1.62,0,0,0-.27.41,2.32,2.32,0,0,0-.18.46,4.5,4.5,0,0,0-.08.51c0,.11,0,.23,0,.36s0,.25,0,.33a2.24,2.24,0,0,0,.08.42.61.61,0,0,0,.18.27.4.4,0,0,0,.27.09.75.75,0,0,0,.38-.13,1.23,1.23,0,0,0,.37-.31,1.56,1.56,0,0,0,.27-.4,1.91,1.91,0,0,0,.18-.47A3,3,0,0,0,204.43,205.2Z" style="fill:#455a64"></path><path d="M208.63,204.35a.49.49,0,0,1,0,.19.3.3,0,0,1-.12.13l-.23.13a.08.08,0,0,1-.11,0s-.05-.06-.05-.12V202.5a1,1,0,0,0-.23-.81c-.15-.12-.37-.11-.64.05a1.67,1.67,0,0,0-.63.68,2.39,2.39,0,0,0-.23,1.08v2.17a.45.45,0,0,1-.05.19c0,.06-.07.11-.12.13l-.23.13a.11.11,0,0,1-.12,0,.17.17,0,0,1,0-.13v-3.84a.41.41,0,0,1,0-.18.43.43,0,0,1,.12-.14l.23-.13a.09.09,0,0,1,.12,0,.16.16,0,0,1,.05.13v.25a2.29,2.29,0,0,1,.35-.58,1.82,1.82,0,0,1,.6-.53,1.32,1.32,0,0,1,.54-.18.63.63,0,0,1,.42.11.87.87,0,0,1,.28.43,2.09,2.09,0,0,1,.1.71Z" style="fill:#455a64"></path><path d="M212.05,202.38a.41.41,0,0,1-.05.18.26.26,0,0,1-.12.13l-.23.14a.11.11,0,0,1-.11,0,.14.14,0,0,1,0-.13v-3.35l-1.12.64v3.35a.41.41,0,0,1-.05.19.26.26,0,0,1-.12.13l-.23.14a.11.11,0,0,1-.11,0,.14.14,0,0,1-.05-.13v-3.35l-.51.29a.11.11,0,0,1-.12,0,.17.17,0,0,1-.05-.13v-.27a.41.41,0,0,1,.05-.18.26.26,0,0,1,.12-.13l.51-.3v-.41a2.69,2.69,0,0,1,.24-1.19,1.87,1.87,0,0,1,.78-.8l1-.61q.08,0,.12,0a.16.16,0,0,1,.05.13V197a.41.41,0,0,1-.05.18.28.28,0,0,1-.12.14l-1,.57a.8.8,0,0,0-.26.21.78.78,0,0,0-.16.24,1.29,1.29,0,0,0-.08.28c0,.1,0,.2,0,.3v.38l1.51-.88c.05,0,.09,0,.12,0a.16.16,0,0,1,.05.13Z" style="fill:#455a64"></path><path d="M214.61,196.84a.08.08,0,0,1,.11,0s.05.06.05.13v.26a.31.31,0,0,1-.05.18.33.33,0,0,1-.11.14l-.36.2a1.44,1.44,0,0,0-.71,1.36v2.41a.41.41,0,0,1,0,.18.26.26,0,0,1-.12.13l-.23.14a.11.11,0,0,1-.11,0,.14.14,0,0,1-.05-.13V198a.31.31,0,0,1,.05-.18.33.33,0,0,1,.11-.14l.23-.13s.09,0,.12,0a.16.16,0,0,1,0,.13v.25a1.79,1.79,0,0,1,.3-.53,1.56,1.56,0,0,1,.45-.38Z" style="fill:#455a64"></path><path d="M215.87,196.59l.13-.28a2.61,2.61,0,0,1,.17-.28,1.86,1.86,0,0,1,.23-.26,1.37,1.37,0,0,1,.3-.22,1,1,0,0,1,.62-.18.53.53,0,0,1,.39.31c.06-.13.11-.26.17-.38a2.5,2.5,0,0,1,.21-.35,2,2,0,0,1,.27-.31,2.56,2.56,0,0,1,.36-.26c.42-.24.72-.25.91,0a1.87,1.87,0,0,1,.28,1.19v2.29a.31.31,0,0,1,0,.18.29.29,0,0,1-.11.13l-.23.14a.13.13,0,0,1-.12,0,.17.17,0,0,1-.05-.13V196a1.24,1.24,0,0,0-.19-.83c-.12-.13-.3-.12-.54,0a1.34,1.34,0,0,0-.53.59,2.3,2.3,0,0,0-.2,1V199a.42.42,0,0,1-.16.32l-.23.13a.11.11,0,0,1-.12,0,.17.17,0,0,1,0-.13v-2.2a1.31,1.31,0,0,0-.18-.83c-.13-.13-.31-.12-.55,0a1.43,1.43,0,0,0-.53.6,2.28,2.28,0,0,0-.2,1v2.26a.31.31,0,0,1-.05.18.33.33,0,0,1-.11.14l-.23.13s-.09,0-.12,0a.16.16,0,0,1-.05-.13v-3.83a.41.41,0,0,1,.05-.19.26.26,0,0,1,.12-.13l.23-.14a.11.11,0,0,1,.11,0,.14.14,0,0,1,.05.13Z" style="fill:#455a64"></path><path d="M223.83,195.88a1,1,0,0,1-.61.17.59.59,0,0,1-.34-.18v1.82a.41.41,0,0,1,0,.18.34.34,0,0,1-.12.14l-.23.13a.09.09,0,0,1-.12,0s0-.07,0-.13v-5.4a.39.39,0,0,1,0-.18.43.43,0,0,1,.12-.14l.23-.13a.09.09,0,0,1,.12,0,.16.16,0,0,1,0,.13v.25a2.85,2.85,0,0,1,.35-.59,1.91,1.91,0,0,1,.6-.52,1.32,1.32,0,0,1,.54-.18.66.66,0,0,1,.44.14,1.11,1.11,0,0,1,.3.45,2.9,2.9,0,0,1,.13.74v.54a5.31,5.31,0,0,1-.13.89,4.51,4.51,0,0,1-.3.78,2.9,2.9,0,0,1-.44.64A2.09,2.09,0,0,1,223.83,195.88Zm-1-2a3.22,3.22,0,0,0,0,.33,2.82,2.82,0,0,0,0,.32.94.94,0,0,0,.26.75c.16.12.37.1.63-.05a1.61,1.61,0,0,0,.65-.71,2.73,2.73,0,0,0,.25-1.09,3.53,3.53,0,0,0,0-.46,1.1,1.1,0,0,0-.25-.79c-.16-.14-.38-.13-.65,0a1.81,1.81,0,0,0-.63.68A2.25,2.25,0,0,0,222.88,193.85Z" style="fill:#455a64"></path><path d="M225.78,193.59a1.89,1.89,0,0,1,.1-.63,2.18,2.18,0,0,1,.27-.58,3.27,3.27,0,0,1,.41-.51,4.22,4.22,0,0,1,.49-.45l.87-.69v-.11q0-.42-.21-.51a.58.58,0,0,0-.52.09,1.23,1.23,0,0,0-.41.37,2.38,2.38,0,0,0-.23.45l-.08.13a.4.4,0,0,1-.12.1l-.19.1a.11.11,0,0,1-.12,0,.14.14,0,0,1,0-.13,1.37,1.37,0,0,1,.1-.44,2.95,2.95,0,0,1,.64-.94,1.87,1.87,0,0,1,.45-.36,1.38,1.38,0,0,1,.52-.19.57.57,0,0,1,.41.08.69.69,0,0,1,.26.35,1.71,1.71,0,0,1,.1.65v2.51a.49.49,0,0,1,0,.19.3.3,0,0,1-.12.13l-.23.13a.08.08,0,0,1-.11,0s-.05-.07-.05-.13v-.33a1.57,1.57,0,0,1-.18.37,1.83,1.83,0,0,1-.26.36c-.11.11-.21.21-.32.3a1.79,1.79,0,0,1-.31.22,1.11,1.11,0,0,1-.44.17.63.63,0,0,1-.34-.05.5.5,0,0,1-.21-.24A1,1,0,0,1,225.78,193.59Zm1.14-.2a1.8,1.8,0,0,0,.4-.33,1.92,1.92,0,0,0,.32-.43,2.41,2.41,0,0,0,.21-.5,2.5,2.5,0,0,0,.07-.54v-.2l-.73.57a3.62,3.62,0,0,0-.62.62,1.06,1.06,0,0,0-.23.61.41.41,0,0,0,0,.16.22.22,0,0,0,.1.11.27.27,0,0,0,.18,0A.65.65,0,0,0,226.92,193.39Z" style="fill:#455a64"></path><path d="M231.21,190.35a.28.28,0,0,0-.07-.22.26.26,0,0,0-.19-.07,1.56,1.56,0,0,0-.33.05l-.47.13c-.33.1-.56.08-.7-.06a.91.91,0,0,1-.2-.64,2,2,0,0,1,.3-1,2.31,2.31,0,0,1,.9-.89,1.45,1.45,0,0,1,.53-.21.69.69,0,0,1,.38,0,.44.44,0,0,1,.23.16.48.48,0,0,1,.09.26.31.31,0,0,1-.05.18.28.28,0,0,1-.12.14l-.2.12-.09,0a.1.1,0,0,1-.1,0,.34.34,0,0,0-.24-.1.92.92,0,0,0-.43.16,1.5,1.5,0,0,0-.46.4.85.85,0,0,0-.18.49.44.44,0,0,0,.05.23.26.26,0,0,0,.16.07,1.3,1.3,0,0,0,.3,0l.45-.13a1.49,1.49,0,0,1,.48-.06.54.54,0,0,1,.3.11.48.48,0,0,1,.17.26,1.4,1.4,0,0,1,.05.38,1.78,1.78,0,0,1-.09.53,2.28,2.28,0,0,1-.26.55,2.72,2.72,0,0,1-.4.51,2.79,2.79,0,0,1-.54.42,1.42,1.42,0,0,1-.54.21.88.88,0,0,1-.4,0,.48.48,0,0,1-.26-.17.45.45,0,0,1-.09-.26.3.3,0,0,1,0-.18.44.44,0,0,1,.13-.14l.22-.12a.2.2,0,0,1,.08,0,.09.09,0,0,1,.1,0,.32.32,0,0,0,.27.12,1,1,0,0,0,.45-.16,2.22,2.22,0,0,0,.27-.19,1.38,1.38,0,0,0,.23-.26,1,1,0,0,0,.17-.27A.65.65,0,0,0,231.21,190.35Z" style="fill:#455a64"></path><path d="M234.33,188.55a.35.35,0,0,0-.06-.23.28.28,0,0,0-.2-.06,1.76,1.76,0,0,0-.33.05l-.46.13c-.34.1-.57.08-.7-.06a.89.89,0,0,1-.2-.65,1.89,1.89,0,0,1,.07-.51,2.14,2.14,0,0,1,.22-.52,2.22,2.22,0,0,1,.38-.49,2.32,2.32,0,0,1,.52-.4,1.81,1.81,0,0,1,.53-.22.94.94,0,0,1,.38,0,.53.53,0,0,1,.24.17.45.45,0,0,1,.08.26.3.3,0,0,1,0,.18.58.58,0,0,1-.12.14l-.21.11a.12.12,0,0,1-.09,0,.09.09,0,0,1-.09,0,.3.3,0,0,0-.24-.1.91.91,0,0,0-.44.15,1.52,1.52,0,0,0-.46.41.86.86,0,0,0-.17.49.33.33,0,0,0,.05.22.17.17,0,0,0,.16.07.86.86,0,0,0,.29,0l.46-.12a1.19,1.19,0,0,1,.47-.06.51.51,0,0,1,.48.36,1.46,1.46,0,0,1,.05.38,1.73,1.73,0,0,1-.09.53,2.5,2.5,0,0,1-.26.55,3.8,3.8,0,0,1-.4.52,2.41,2.41,0,0,1-.54.41,1.85,1.85,0,0,1-.54.22,1,1,0,0,1-.4,0,.5.5,0,0,1-.26-.17.52.52,0,0,1-.1-.26.31.31,0,0,1,.05-.18.28.28,0,0,1,.12-.14l.22-.13.09,0s.06,0,.09,0a.34.34,0,0,0,.27.12,1.09,1.09,0,0,0,.46-.16,1.64,1.64,0,0,0,.26-.2,1.88,1.88,0,0,0,.24-.25,1.28,1.28,0,0,0,.16-.27A.65.65,0,0,0,234.33,188.55Z" style="fill:#455a64"></path><path d="M238.56,186l.7-3.15a.76.76,0,0,1,.06-.18.34.34,0,0,1,.15-.14l.2-.12a.09.09,0,0,1,.1,0,.13.13,0,0,1,0,.11.17.17,0,0,1,0,.07l-.94,4.33a1,1,0,0,1-.07.21.25.25,0,0,1-.12.13l-.19.11q-.08,0-.12,0a.35.35,0,0,1-.07-.12l-.74-2.31-.73,3.16c0,.07-.05.14-.07.2a.28.28,0,0,1-.12.14l-.2.11c-.05,0-.09,0-.12,0a.53.53,0,0,1-.06-.13l-.94-3.24a.15.15,0,0,1,0-.07.32.32,0,0,1,0-.16.43.43,0,0,1,.11-.12l.2-.12c.06,0,.11,0,.14,0a.13.13,0,0,1,.07.09l.69,2.35.74-3.18.06-.16a.37.37,0,0,1,.13-.15l.14-.07c.06,0,.11,0,.13,0a.18.18,0,0,1,.06.09Z" style="fill:#455a64"></path><path d="M241.73,181.1a1.35,1.35,0,0,1,.6-.21.65.65,0,0,1,.44.12.87.87,0,0,1,.29.41,2.08,2.08,0,0,1,.14.67v.77a4.5,4.5,0,0,1-.14.83,3.67,3.67,0,0,1-.29.74,3.09,3.09,0,0,1-.44.63,2.75,2.75,0,0,1-.6.48,1.36,1.36,0,0,1-.59.21.7.7,0,0,1-.45-.12.87.87,0,0,1-.29-.41,2.34,2.34,0,0,1-.13-.67s0-.09,0-.16V184c0-.07,0-.13,0-.18a4.38,4.38,0,0,1,.13-.82,3.54,3.54,0,0,1,.29-.75,3.33,3.33,0,0,1,.45-.64A2.22,2.22,0,0,1,241.73,181.1Zm.91,2c0-.09,0-.21,0-.34s0-.25,0-.35a1.65,1.65,0,0,0-.09-.41.53.53,0,0,0-.17-.27.4.4,0,0,0-.27-.09.83.83,0,0,0-.38.12,1.6,1.6,0,0,0-.37.31,2,2,0,0,0-.28.41,2.17,2.17,0,0,0-.17.47,2.74,2.74,0,0,0-.08.5c0,.11,0,.23,0,.36a3.33,3.33,0,0,0,0,.34,1.66,1.66,0,0,0,.08.41.6.6,0,0,0,.17.27.45.45,0,0,0,.28.09.72.72,0,0,0,.37-.13,1.4,1.4,0,0,0,.38-.3,1.82,1.82,0,0,0,.27-.41,1.75,1.75,0,0,0,.17-.47A2.71,2.71,0,0,0,242.64,183.14Z" style="fill:#455a64"></path><path d="M245.61,178.94s.09,0,.12,0a.14.14,0,0,1,.05.13v.26a.41.41,0,0,1-.05.18.28.28,0,0,1-.12.14l-.36.2a1.46,1.46,0,0,0-.71,1.36v2.41a.31.31,0,0,1,0,.18.29.29,0,0,1-.11.13l-.23.14a.13.13,0,0,1-.12,0,.17.17,0,0,1-.05-.13V180.1a.41.41,0,0,1,.05-.18.28.28,0,0,1,.12-.14l.23-.13s.08,0,.11,0,0,.07,0,.13V180a2,2,0,0,1,.3-.53,1.71,1.71,0,0,1,.45-.38Z" style="fill:#455a64"></path><path d="M247.49,177.77a1,1,0,0,1,.61-.17.62.62,0,0,1,.35.18V176a.46.46,0,0,1,0-.19.51.51,0,0,1,.12-.13l.23-.13s.09,0,.12,0a.16.16,0,0,1,0,.13V181a.41.41,0,0,1,0,.18.28.28,0,0,1-.12.14l-.23.13a.11.11,0,0,1-.12,0s0-.07,0-.13v-.25a2.92,2.92,0,0,1-.36.59,2.05,2.05,0,0,1-.6.52,1.27,1.27,0,0,1-.54.18.74.74,0,0,1-.44-.14,1,1,0,0,1-.29-.45,2.23,2.23,0,0,1-.13-.74,2.26,2.26,0,0,1,0-.27,2.44,2.44,0,0,1,0-.27,3.75,3.75,0,0,1,.13-.89,3.81,3.81,0,0,1,.29-.78,3.29,3.29,0,0,1,.44-.64A2.06,2.06,0,0,1,247.49,177.77Zm1,2v-.65c0-.39-.1-.64-.27-.75s-.37-.1-.63,0a1.54,1.54,0,0,0-.64.71,2.57,2.57,0,0,0-.26,1.09v.46a1.06,1.06,0,0,0,.26.79c.15.14.37.13.64,0a1.67,1.67,0,0,0,.63-.68A2.26,2.26,0,0,0,248.45,179.8Z" style="fill:#455a64"></path><path d="M250.47,176.54a.11.11,0,0,1,.12,0,.17.17,0,0,1,0,.13v.55a.45.45,0,0,1,0,.19.26.26,0,0,1-.12.13l-.41.24q-.08,0-.12,0a.14.14,0,0,1-.05-.12v-.56a.41.41,0,0,1,.05-.18.33.33,0,0,1,.12-.14Zm0,2.88q.08,0,.12,0a.14.14,0,0,1,0,.12v.56a.41.41,0,0,1,0,.18.33.33,0,0,1-.12.14l-.41.23a.11.11,0,0,1-.12,0,.17.17,0,0,1-.05-.13V180a.45.45,0,0,1,.05-.19.26.26,0,0,1,.12-.13Z" style="fill:#455a64"></path><g id="freepik--button--inject-3"><g id="freepik--shadow--inject-3" style="opacity:0.2"><path d="M141,280.66l155.35-89.6c.71-.41,1.29-.07,1.29.74v21a2.83,2.83,0,0,1-1.29,2.22L141,304.64c-.71.41-1.28.08-1.28-.74v-21A2.84,2.84,0,0,1,141,280.66Z"></path></g><g id="freepik--speech-bubble--inject-3"><path d="M294.54,195.72l-150,86.5a3.14,3.14,0,0,0-1.42,2.45v19.51a3.07,3.07,0,0,0,1.43,2.44l2.69,1.53a3.16,3.16,0,0,0,2.84,0l150-86.5a3.13,3.13,0,0,0,1.41-2.45V199.67a3.08,3.08,0,0,0-1.42-2.44l-2.69-1.53A3.19,3.19,0,0,0,294.54,195.72Z" style="fill:#407BFF"></path><path d="M150.07,308.13a3.22,3.22,0,0,1-2.84,0l-2.69-1.53a3.07,3.07,0,0,1-1.43-2.44V284.67a2.92,2.92,0,0,1,.45-1.44l5.51,3.18a2.84,2.84,0,0,0-.42,1.4v19.5C148.65,308.14,149.24,308.62,150.07,308.13Z" style="opacity:0.2"></path><g style="opacity:0.2"><path d="M301.47,199.41c-.11-.71-.69-1-1.39-.56l-150,86.51a2.89,2.89,0,0,0-1,1.05l-5.51-3.18a2.77,2.77,0,0,1,1-1l150-86.51a3.19,3.19,0,0,1,2.84,0l2.69,1.53A3.09,3.09,0,0,1,301.47,199.41Z" style="fill:#fff"></path></g><path d="M300.08,198.85l-150,86.51a3.12,3.12,0,0,0-1.42,2.45v19.51c0,.9.64,1.27,1.42.81l150-86.5a3.13,3.13,0,0,0,1.41-2.45V199.67C301.49,198.77,300.86,198.4,300.08,198.85Z" style="fill:#407BFF"></path><path d="M300.08,198.85l-150,86.51a3.12,3.12,0,0,0-1.42,2.45v19.51c0,.9.64,1.27,1.42.81l150-86.5a3.13,3.13,0,0,0,1.41-2.45V199.67C301.49,198.77,300.86,198.4,300.08,198.85Z" style="fill:#fff;opacity:0.5"></path></g><path d="M180.67,280.55a.9.9,0,0,1,.13-.38.59.59,0,0,1,.21-.23l1-.54a.22.22,0,0,1,.23,0c.07,0,.1.12.09.25a7.81,7.81,0,0,1-.24,1.42,6.8,6.8,0,0,1-.63,1.52,8,8,0,0,1-1.06,1.46,6.43,6.43,0,0,1-1.56,1.23,3.32,3.32,0,0,1-1.43.5,1.56,1.56,0,0,1-1.06-.28,2,2,0,0,1-.67-1,5.29,5.29,0,0,1-.29-1.56c0-.39,0-.82,0-1.3s0-.92,0-1.33a9.49,9.49,0,0,1,.29-1.9,7.83,7.83,0,0,1,.67-1.75,6.89,6.89,0,0,1,1.06-1.5,5.7,5.7,0,0,1,1.43-1.15,3.84,3.84,0,0,1,1.56-.57,1.71,1.71,0,0,1,1.06.23,1.64,1.64,0,0,1,.63.8,4.13,4.13,0,0,1,.24,1.13.61.61,0,0,1-.09.36.63.63,0,0,1-.23.25l-1,.55a.25.25,0,0,1-.22,0c-.07,0-.11-.1-.13-.23a1.39,1.39,0,0,0-.16-.51.85.85,0,0,0-.35-.33,1,1,0,0,0-.57-.06,2.36,2.36,0,0,0-.79.31,3.4,3.4,0,0,0-.8.65,3.83,3.83,0,0,0-.57.83,4.13,4.13,0,0,0-.35.95,6,6,0,0,0-.15,1c0,.4,0,.84,0,1.32s0,.92,0,1.3a3.32,3.32,0,0,0,.15.85,1.13,1.13,0,0,0,.35.54.88.88,0,0,0,.57.17,1.89,1.89,0,0,0,.8-.27,3.77,3.77,0,0,0,.79-.61,4,4,0,0,0,.57-.71,4.19,4.19,0,0,0,.36-.74A3.32,3.32,0,0,0,180.67,280.55Z" style="fill:#fff"></path><path d="M189.26,278.63a.76.76,0,0,1-.09.35.66.66,0,0,1-.23.26l-.89.51a.18.18,0,0,1-.22,0,.27.27,0,0,1-.09-.24v-4a2,2,0,0,0-.33-1.31c-.22-.24-.55-.24-1,0a2.49,2.49,0,0,0-1,1.13,4.12,4.12,0,0,0-.35,1.71v4a.64.64,0,0,1-.1.35.53.53,0,0,1-.22.26l-.89.51c-.09.05-.16.06-.22,0a.28.28,0,0,1-.1-.25V271.69a.67.67,0,0,1,.1-.35.58.58,0,0,1,.22-.26l.89-.51a.18.18,0,0,1,.22,0,.25.25,0,0,1,.1.24v3.32a6.94,6.94,0,0,1,.71-1.08,3.68,3.68,0,0,1,1-.83,2.44,2.44,0,0,1,1.2-.39,1,1,0,0,1,.77.35,1.92,1.92,0,0,1,.42.92,6.78,6.78,0,0,1,.12,1.33Z" style="fill:#fff"></path><path d="M190.82,272a4.38,4.38,0,0,1,.21-.83,6,6,0,0,1,.49-1,5.57,5.57,0,0,1,.76-1,4.49,4.49,0,0,1,1.05-.82,2.88,2.88,0,0,1,1.07-.41,1.2,1.2,0,0,1,.83.14,1.29,1.29,0,0,1,.53.71,3.74,3.74,0,0,1,.19,1.31v4.59a.76.76,0,0,1-.09.35.66.66,0,0,1-.23.26l-.89.51a.18.18,0,0,1-.22,0,.27.27,0,0,1-.09-.24v-.51a5.28,5.28,0,0,1-.71,1.18,4.15,4.15,0,0,1-1.18,1,2.75,2.75,0,0,1-.9.34,1,1,0,0,1-.67-.12,1.09,1.09,0,0,1-.41-.54,2.3,2.3,0,0,1-.15-.89,3.84,3.84,0,0,1,.57-2,6.83,6.83,0,0,1,1.54-1.71l1.91-1.54c0-.43-.11-.67-.32-.72a1,1,0,0,0-.78.18,1.64,1.64,0,0,0-.46.38,2.67,2.67,0,0,0-.32.48,1.91,1.91,0,0,1-.19.28,1,1,0,0,1-.19.16l-1.09.63a.21.21,0,0,1-.2,0C190.82,272.22,190.8,272.15,190.82,272Zm2,3.28a3,3,0,0,0,.71-.56,3.91,3.91,0,0,0,.53-.7,3.33,3.33,0,0,0,.31-.74,2.67,2.67,0,0,0,.11-.71v-.15l-1.6,1.29a3.22,3.22,0,0,0-.69.72,1.27,1.27,0,0,0-.21.69c0,.22.09.34.25.34A1.07,1.07,0,0,0,192.77,275.31Z" style="fill:#fff"></path><path d="M203.23,270.57a.78.78,0,0,1-.1.35.55.55,0,0,1-.22.25l-.89.52a.18.18,0,0,1-.22,0,.25.25,0,0,1-.1-.24v-4a2,2,0,0,0-.33-1.31c-.22-.25-.55-.24-1,0a2.44,2.44,0,0,0-1,1.13A4,4,0,0,0,199,269v4a.76.76,0,0,1-.09.35.65.65,0,0,1-.22.26l-.9.51a.18.18,0,0,1-.22,0,.27.27,0,0,1-.09-.24v-7.28a.79.79,0,0,1,.09-.35.61.61,0,0,1,.22-.25l.9-.52a.18.18,0,0,1,.22,0,.3.3,0,0,1,.09.24v.36a6.15,6.15,0,0,1,.72-1.08,3.37,3.37,0,0,1,1-.83,2.38,2.38,0,0,1,1.19-.39,1.06,1.06,0,0,1,.78.35,2,2,0,0,1,.41.92,6.74,6.74,0,0,1,.13,1.33Z" style="fill:#fff"></path><path d="M207.44,270.12a3.3,3.3,0,0,0,.51-.39,3.44,3.44,0,0,0,.46-.59,3.11,3.11,0,0,0,.35-.76,2.72,2.72,0,0,0,.14-.86v-.58c-.07.13-.15.28-.25.44a4.17,4.17,0,0,1-.37.52,4.87,4.87,0,0,1-.5.53,4,4,0,0,1-.65.47,2,2,0,0,1-1.06.3,1.24,1.24,0,0,1-.81-.34,2.18,2.18,0,0,1-.53-.87,4.36,4.36,0,0,1-.22-1.26c0-.15,0-.33,0-.54s0-.39,0-.55a7.44,7.44,0,0,1,.22-1.51,8,8,0,0,1,.53-1.47,5.79,5.79,0,0,1,.81-1.28,3.82,3.82,0,0,1,1.06-.92,2.65,2.65,0,0,1,.65-.28,1.58,1.58,0,0,1,.5-.06,1,1,0,0,1,.37.09,1.8,1.8,0,0,1,.25.17V260a.76.76,0,0,1,.09-.35.65.65,0,0,1,.22-.26l.89-.51a.18.18,0,0,1,.22,0,.25.25,0,0,1,.1.24v7.32a6.75,6.75,0,0,1-.79,3.31,5.7,5.7,0,0,1-2.19,2.22,3.2,3.2,0,0,1-1.1.43,1.73,1.73,0,0,1-.89-.05,1.23,1.23,0,0,1-.6-.45,1.38,1.38,0,0,1-.24-.77.59.59,0,0,1,.09-.35.65.65,0,0,1,.22-.26l.8-.46a.24.24,0,0,1,.28,0,1.16,1.16,0,0,1,.2.16.56.56,0,0,0,.42.19A1.57,1.57,0,0,0,207.44,270.12Zm-1.4-5.25a4.21,4.21,0,0,0,0,.87c0,.66.2,1.05.47,1.2a1,1,0,0,0,1-.12,2.68,2.68,0,0,0,1-1,3.43,3.43,0,0,0,.46-1.56c0-.16,0-.37,0-.61s0-.43,0-.57a1.24,1.24,0,0,0-.46-1,.9.9,0,0,0-1,.09,2.7,2.7,0,0,0-1,1A3.76,3.76,0,0,0,206,264.87Z" style="fill:#fff"></path><path d="M211.73,262a8.19,8.19,0,0,1,.2-1.76,7.92,7.92,0,0,1,.57-1.68,7.17,7.17,0,0,1,.91-1.42,4.51,4.51,0,0,1,1.19-1,2.33,2.33,0,0,1,1.19-.37,1.45,1.45,0,0,1,.91.33,2.13,2.13,0,0,1,.58.94,4.54,4.54,0,0,1,.2,1.4v.7a.73.73,0,0,1-.09.35.65.65,0,0,1-.22.26L213.25,262a1.21,1.21,0,0,0,.11.56.6.6,0,0,0,.3.29.65.65,0,0,0,.44,0,1.55,1.55,0,0,0,.5-.19,3.13,3.13,0,0,0,.61-.46,2.93,2.93,0,0,0,.39-.48,1.69,1.69,0,0,1,.21-.29,1.06,1.06,0,0,1,.22-.18l.94-.54a.19.19,0,0,1,.23,0,.24.24,0,0,1,.08.24,2.7,2.7,0,0,1-.18.67,5.1,5.1,0,0,1-.51,1,7.51,7.51,0,0,1-.84,1,4.88,4.88,0,0,1-1.15.9,2.45,2.45,0,0,1-1.19.38,1.26,1.26,0,0,1-.91-.34,2.15,2.15,0,0,1-.57-1A5.67,5.67,0,0,1,211.73,262Zm2.87-4a2.25,2.25,0,0,0-.58.47,2.85,2.85,0,0,0-.4.58,3,3,0,0,0-.26.61,5,5,0,0,0-.11.56l2.65-1.53a2.15,2.15,0,0,0-.09-.44.65.65,0,0,0-.21-.35.53.53,0,0,0-.38-.12A1.4,1.4,0,0,0,214.6,258Z" style="fill:#fff"></path><path d="M225,247.49c.95-.54,1.68-.67,2.2-.38s.79,1,.79,2.16a6,6,0,0,1-.79,3.07,5.76,5.76,0,0,1-2.2,2.18l-1.87,1.08v3.49a.69.69,0,0,1-.1.35.55.55,0,0,1-.22.25l-1,.55a.18.18,0,0,1-.22,0,.29.29,0,0,1-.1-.24V249.91a.78.78,0,0,1,.1-.35.55.55,0,0,1,.22-.25Zm-1.87,6.16,1.81-1.05a3.21,3.21,0,0,0,1.07-1,2.59,2.59,0,0,0,.4-1.46c0-.58-.14-.91-.4-1a1.5,1.5,0,0,0-1.07.28l-1.81,1.05Z" style="fill:#fff"></path><path d="M229,250a3.55,3.55,0,0,1,.22-.83,4.91,4.91,0,0,1,.48-1,5.74,5.74,0,0,1,.76-1,4.77,4.77,0,0,1,1.05-.82,3.18,3.18,0,0,1,1.08-.41,1.23,1.23,0,0,1,.82.14,1.32,1.32,0,0,1,.53.72,3.68,3.68,0,0,1,.19,1.3v4.6a.79.79,0,0,1-.09.35.61.61,0,0,1-.22.25l-.89.51a.2.2,0,0,1-.23,0,.3.3,0,0,1-.09-.25v-.51a4.75,4.75,0,0,1-.71,1.18,4,4,0,0,1-1.18,1,2.25,2.25,0,0,1-.9.34.92.92,0,0,1-.67-.12,1.07,1.07,0,0,1-.41-.53,2.33,2.33,0,0,1-.15-.89,3.73,3.73,0,0,1,.58-2,6.65,6.65,0,0,1,1.53-1.72l1.91-1.54c0-.42-.11-.67-.32-.72a1,1,0,0,0-.78.19,1.46,1.46,0,0,0-.46.37,3.62,3.62,0,0,0-.31.48,1.46,1.46,0,0,1-.2.28.7.7,0,0,1-.19.16l-1.09.63a.19.19,0,0,1-.2,0C229,250.16,229,250.09,229,250Zm2,3.27a3.19,3.19,0,0,0,.71-.56,3.53,3.53,0,0,0,.52-.7,3.15,3.15,0,0,0,.31-.74,2.6,2.6,0,0,0,.11-.7v-.16l-1.59,1.3a2.85,2.85,0,0,0-.69.72,1.2,1.2,0,0,0-.22.69c0,.22.09.33.26.34A1.25,1.25,0,0,0,231,253.25Z" style="fill:#fff"></path><path d="M239,248a.27.27,0,0,0-.09-.24.43.43,0,0,0-.28,0,3.75,3.75,0,0,0-.55.13l-.87.25a2.33,2.33,0,0,1-.85.11.9.9,0,0,1-.54-.24,1,1,0,0,1-.29-.54,3.4,3.4,0,0,1-.08-.82,3.58,3.58,0,0,1,.16-1,5.62,5.62,0,0,1,.47-1.08,5.5,5.5,0,0,1,.76-1,4.44,4.44,0,0,1,1-.81,3.45,3.45,0,0,1,1-.42,1.64,1.64,0,0,1,.77,0,.91.91,0,0,1,.49.36,1.21,1.21,0,0,1,.2.63.66.66,0,0,1-.08.35.75.75,0,0,1-.23.26l-.91.52c-.11.06-.2.09-.26.06l-.19-.08a.6.6,0,0,0-.28,0,1.48,1.48,0,0,0-.53.21,3,3,0,0,0-.62.5,1,1,0,0,0-.27.66.42.42,0,0,0,.06.25.3.3,0,0,0,.25.07,2.71,2.71,0,0,0,.5-.1q.33-.07.84-.24c.7-.2,1.19-.17,1.47.08a1.71,1.71,0,0,1,.43,1.33,3.22,3.22,0,0,1-.18,1,4.29,4.29,0,0,1-.51,1.09,5.59,5.59,0,0,1-.82,1,4.73,4.73,0,0,1-1.09.84,3.35,3.35,0,0,1-1.1.44,1.49,1.49,0,0,1-.8,0,.93.93,0,0,1-.5-.41,1.3,1.3,0,0,1-.19-.65.76.76,0,0,1,.32-.61l.9-.52c.11-.07.2-.08.26,0l.2.13a.48.48,0,0,0,.31.07,1.48,1.48,0,0,0,.6-.23,3.75,3.75,0,0,0,.36-.24c.13-.1.24-.2.35-.3a2.56,2.56,0,0,0,.26-.34A.71.71,0,0,0,239,248Z" style="fill:#fff"></path><path d="M245.12,244.48a.31.31,0,0,0-.08-.24.42.42,0,0,0-.29,0,3.51,3.51,0,0,0-.55.12l-.86.26a2.6,2.6,0,0,1-.86.1.92.92,0,0,1-.54-.23,1,1,0,0,1-.29-.55,3.93,3.93,0,0,1-.08-.82,3.58,3.58,0,0,1,.16-1,4.82,4.82,0,0,1,.48-1.07,5.51,5.51,0,0,1,.75-1,4.44,4.44,0,0,1,1-.81,3.49,3.49,0,0,1,1-.42,1.6,1.6,0,0,1,.76,0,.9.9,0,0,1,.5.37,1.34,1.34,0,0,1,.2.62.76.76,0,0,1-.09.35.66.66,0,0,1-.23.26l-.9.52a.36.36,0,0,1-.27.07l-.19-.09a.59.59,0,0,0-.28,0,1.43,1.43,0,0,0-.53.22,2.48,2.48,0,0,0-.62.5.92.92,0,0,0-.27.65.34.34,0,0,0,.07.25c0,.06.12.08.24.07a2.54,2.54,0,0,0,.5-.09l.84-.24c.7-.21,1.19-.18,1.47.08a1.67,1.67,0,0,1,.43,1.32,3.5,3.5,0,0,1-.17,1,5.41,5.41,0,0,1-.51,1.1,6.5,6.5,0,0,1-.82,1,5,5,0,0,1-1.1.84,3.27,3.27,0,0,1-1.1.44,1.61,1.61,0,0,1-.8,0,1,1,0,0,1-.5-.41,1.37,1.37,0,0,1-.19-.66.59.59,0,0,1,.09-.35.66.66,0,0,1,.23-.26l.9-.52c.12-.06.2-.08.26,0a1.86,1.86,0,0,1,.2.14.57.57,0,0,0,.31.07,1.65,1.65,0,0,0,.6-.24l.36-.24a2.52,2.52,0,0,0,.35-.3,2,2,0,0,0,.26-.34A.71.71,0,0,0,245.12,244.48Z" style="fill:#fff"></path><path d="M253.69,238.57l1.06-5.07a1.39,1.39,0,0,1,.1-.31.52.52,0,0,1,.23-.26l.89-.51a.18.18,0,0,1,.22,0,.27.27,0,0,1,.09.24.37.37,0,0,1,0,.11L254.5,241a2.33,2.33,0,0,1-.1.32.51.51,0,0,1-.24.26l-.89.52c-.11.06-.18.06-.23,0a.75.75,0,0,1-.11-.2l-1.13-3.51-1.14,4.83c0,.11-.07.22-.11.33a.5.5,0,0,1-.23.25l-.89.52c-.11.06-.19.06-.24,0a.68.68,0,0,1-.1-.21l-1.77-6.18a.28.28,0,0,1,0-.1.79.79,0,0,1,.09-.35.69.69,0,0,1,.22-.25l.9-.52c.1-.06.18-.06.22,0a.44.44,0,0,1,.1.19l1.06,3.86,1.12-5.12a1.67,1.67,0,0,1,.11-.31.55.55,0,0,1,.22-.25l.89-.52a.18.18,0,0,1,.22,0,.33.33,0,0,1,.11.19Z" style="fill:#fff"></path><path d="M260,230a2.84,2.84,0,0,1,1.17-.41,1.41,1.41,0,0,1,.9.22,1.68,1.68,0,0,1,.61.74,5,5,0,0,1,.28,1.54v.87a3.53,3.53,0,0,1,0,.36,6.78,6.78,0,0,1-.27,1.5,6.66,6.66,0,0,1-.6,1.43,6.5,6.5,0,0,1-.9,1.25,5.25,5.25,0,0,1-1.17.94,2.82,2.82,0,0,1-1.16.4,1.45,1.45,0,0,1-.91-.2,1.67,1.67,0,0,1-.6-.74,3.42,3.42,0,0,1-.27-1.19c0-.09,0-.2,0-.34v-.87c0-.14,0-.27,0-.36a6.08,6.08,0,0,1,.27-1.5,7.64,7.64,0,0,1,.6-1.45,7,7,0,0,1,.91-1.25A4.74,4.74,0,0,1,260,230Zm1.42,2.7a1.71,1.71,0,0,0-.17-.71.61.61,0,0,0-.33-.31.73.73,0,0,0-.44,0,2,2,0,0,0-.48.21,3.54,3.54,0,0,0-.48.34,2.75,2.75,0,0,0-.43.51,3.24,3.24,0,0,0-.33.7,3.13,3.13,0,0,0-.17.9,2.92,2.92,0,0,0,0,.33c0,.12,0,.26,0,.39s0,.27,0,.4a2.07,2.07,0,0,0,0,.29,1.61,1.61,0,0,0,.17.71.65.65,0,0,0,.33.31.7.7,0,0,0,.43,0,1.67,1.67,0,0,0,.48-.21,2.26,2.26,0,0,0,.48-.35,2.42,2.42,0,0,0,.44-.5,3.33,3.33,0,0,0,.5-1.61,2.63,2.63,0,0,0,0-.31V233A2.63,2.63,0,0,0,261.39,232.65Z" style="fill:#fff"></path><path d="M267.11,227.86a2.58,2.58,0,0,0-1,1,3.41,3.41,0,0,0-.31,1.53v4.06a.76.76,0,0,1-.09.35.65.65,0,0,1-.22.26l-.89.51a.19.19,0,0,1-.23,0,.27.27,0,0,1-.09-.24v-7.28a.79.79,0,0,1,.09-.35.63.63,0,0,1,.23-.25l.89-.51a.18.18,0,0,1,.22,0,.3.3,0,0,1,.09.24v.36a6.56,6.56,0,0,1,.65-.95,3.6,3.6,0,0,1,.91-.73l.53-.3a.18.18,0,0,1,.22,0,.27.27,0,0,1,.09.24v1a.79.79,0,0,1-.09.35.61.61,0,0,1-.22.25Z" style="fill:#fff"></path><path d="M271.41,223.35a2.5,2.5,0,0,1,.65-.28,1.58,1.58,0,0,1,.5-.06,1,1,0,0,1,.37.09,1.21,1.21,0,0,1,.25.17v-3.33a.76.76,0,0,1,.09-.35.58.58,0,0,1,.22-.26l.89-.51a.18.18,0,0,1,.22,0,.25.25,0,0,1,.1.24v10.25a.69.69,0,0,1-.1.35.55.55,0,0,1-.22.25l-.89.51c-.09.05-.16.06-.22,0a.3.3,0,0,1-.09-.24v-.36l-.25.44a5.07,5.07,0,0,1-.37.52,4.87,4.87,0,0,1-.5.53,3.8,3.8,0,0,1-.65.46,1.89,1.89,0,0,1-1.06.31,1.24,1.24,0,0,1-.81-.34,2.18,2.18,0,0,1-.53-.87,4.36,4.36,0,0,1-.22-1.26c0-.15,0-.33,0-.54s0-.39,0-.55A7.44,7.44,0,0,1,269,227a8.13,8.13,0,0,1,.53-1.48,6,6,0,0,1,.81-1.27A3.82,3.82,0,0,1,271.41,223.35Zm-1.09,4.41a4.21,4.21,0,0,0,0,.87c0,.65.2,1.05.46,1.19a1,1,0,0,0,1-.11,2.68,2.68,0,0,0,1-1,3.51,3.51,0,0,0,.46-1.56c0-.17,0-.37,0-.61s0-.43,0-.58a1.21,1.21,0,0,0-.46-1,.9.9,0,0,0-1,.09,2.72,2.72,0,0,0-1,1A3.85,3.85,0,0,0,270.32,227.76Z" style="fill:#fff"></path></g></g></g></svg>